<svg width="70" height="70" viewBox="0 0 70 70" fill="none" xmlns="http://www.w3.org/2000/svg">
<path d="M60.2594 40.196C57.8119 40.2144 55.6926 40.9986 53.9151 42.1662C53.2587 40.4333 52.6024 38.9191 52.4932 37.7883C52.3701 36.475 52.2197 35.6722 52.3701 34.1036C52.5204 32.5347 53.2041 30.3093 53.2041 30.1269C53.1902 29.9627 53.0535 29.1601 51.6453 29.1419C50.2371 29.1236 49.0201 29.5067 48.8834 29.9992C48.7466 30.4917 48.4732 31.6227 48.2954 32.7901C48.0493 34.5047 45.4788 40.579 44.0157 43.7712C43.5372 42.5308 43.127 41.4364 43.0448 40.5606C42.9219 39.2474 42.7714 38.4446 42.9219 36.8761C43.0723 35.3072 43.756 33.0819 43.756 32.8995C43.7423 32.7354 43.6056 31.9328 42.1974 31.9145C40.7889 31.8963 39.5721 32.2793 39.4354 32.7718C39.2987 33.2644 39.1483 34.4318 38.8475 35.5627C38.5602 36.6937 35.1419 46.8357 34.2532 49.4807C33.802 50.8305 33.4056 51.9067 33.1183 52.6364C32.8312 53.366 33.1046 52.6911 33.0773 52.7641C32.8312 53.3843 32.6945 53.7309 32.6945 53.7309V53.7493C32.503 54.2053 32.2979 54.6429 32.2021 54.6429C32.1337 54.6429 31.997 53.4208 32.2294 51.7428C32.7353 48.2221 33.9659 42.7317 33.9524 42.531C33.9524 42.4398 34.1847 41.4728 33.1592 40.9805C32.1611 40.488 31.8057 41.3089 31.7235 41.3089C31.6415 41.3089 31.5731 41.6007 31.5731 41.6007C31.5731 41.6007 32.6806 35.4172 29.4538 35.4172C27.4302 35.4172 24.6409 38.354 23.2599 41.0354C22.3848 41.6739 20.5253 43.0235 18.5564 44.4647C17.8043 45.012 17.025 45.5957 16.2866 46.1247L16.1364 45.9054C12.2259 40.3419 4.99281 36.4018 5.29362 28.923C5.403 26.205 6.114 19.0363 19.1856 10.3535C29.8916 3.23951 38.4646 5.19131 39.9548 9.53269C42.0742 15.7347 35.3744 27.263 24.2446 28.923C20.006 29.5614 17.7771 27.3725 17.2167 26.5516C16.6287 25.6943 16.5467 25.6578 16.3279 25.822C15.9724 26.0774 16.1912 26.8435 16.3279 27.2995C16.6561 28.4487 18.0234 30.4917 20.3478 31.5132C22.385 32.407 27.3621 32.8995 33.3782 29.7985C40.1191 26.3145 45.3832 16.6467 43.8381 8.56591C42.2657 0.339174 32.0383 -2.36051 22.3714 2.21801C16.6149 4.95417 10.38 9.22259 5.89523 14.8226C0.562738 21.4624 -0.284993 27.263 0.0705072 29.6709C1.31489 38.2624 10.1886 43.8624 13.7436 48.0032C13.5658 48.1307 13.4017 48.2584 13.2513 48.368C11.4738 49.5352 4.70568 54.2599 3.01022 59.2577C1.09599 64.9125 3.31102 68.9804 4.78772 69.5276C9.35452 71.2241 14.0307 68.1778 16.5602 63.1615C19.0759 58.1452 18.7753 51.6331 17.6131 48.6598L17.5719 48.5504L18.9666 47.4559C19.8691 46.7445 20.7579 46.0878 21.5371 45.5222C21.0997 47.1092 20.7851 48.988 20.6211 51.7242C20.4297 54.9348 21.4142 59.0936 22.7131 60.7353C23.2874 61.4465 23.971 61.4649 24.3949 61.4649C25.8989 61.4649 26.5826 59.8048 27.3346 57.8167C28.2644 55.3906 29.0848 52.5815 29.0848 52.5815C29.0848 52.5815 28.0593 60.188 30.8623 60.188C31.8877 60.188 32.9132 58.4186 33.3781 57.5066V57.5248C33.3781 57.5248 33.4054 57.4701 33.4601 57.3424C33.5175 57.2292 33.5722 57.1137 33.6242 56.996V56.9595C34.0344 56.011 34.9505 53.8403 36.3178 50.2468C38.0815 45.6136 39.7771 39.8129 39.7771 39.8129C39.7771 39.8129 39.9412 41.2357 40.4471 43.5706C40.7478 44.9571 41.4041 46.4709 41.91 47.9484C41.4998 48.7146 41.2537 49.1525 41.2537 49.1525L41.2673 49.1708C40.9393 49.7545 40.57 50.3749 40.1873 50.9949C38.7926 53.2203 37.1245 55.756 36.9058 56.4856C36.646 57.3428 36.7007 57.9812 37.2066 58.4922C37.5757 58.857 38.232 58.9298 38.9294 58.857C40.1873 58.7473 41.0624 58.328 41.4999 58.0724C42.1836 57.7441 42.9629 57.2516 43.7149 56.5219C45.0822 55.1723 45.9163 53.257 45.8343 50.7032C45.7933 49.2986 45.4514 47.9123 45.0276 46.599C45.1506 46.3618 45.2738 46.1245 45.3967 45.8693C47.5571 41.6554 49.2252 37.0224 49.2252 37.0224C49.2252 37.0224 49.3893 38.4452 49.8952 40.78C50.1548 41.9657 50.6745 43.261 51.1394 44.5379C49.1158 46.7451 47.8442 49.2988 47.4067 50.977C46.6 54.078 47.2289 55.4826 48.4185 55.8109C48.9516 55.9568 49.7174 55.6285 50.2916 55.3001C51.0026 54.99 51.864 54.4609 52.6571 53.6767C54.0244 52.3268 55.3371 50.448 55.2687 47.9125C55.2277 46.7451 54.9952 45.5959 54.6807 44.5014C56.4035 43.5529 58.6321 43.0056 61.4626 43.4617C67.5471 44.4102 68.7503 49.4812 68.518 51.5972C68.2856 53.7134 67.014 54.8806 66.59 55.2454C66.1661 55.592 66.0294 55.7199 66.0704 55.9751C66.1251 56.3583 66.3165 56.3399 66.6857 56.2671C67.1916 56.1575 69.8852 54.5342 69.9946 50.6308C70.1587 45.6138 66.59 40.1414 60.2594 40.196ZM13.3334 61.3009C11.3234 64.2377 8.49312 65.3504 7.28989 64.4019C5.99095 63.3986 6.49671 59.0755 8.97167 55.9563C10.4757 54.0592 12.431 52.3081 13.7162 51.2318C14.0034 50.9947 14.4409 50.6483 14.9605 50.2286C15.0425 50.1558 15.0972 50.1191 15.0972 50.1191C15.1929 50.0462 15.3023 49.955 15.4117 49.8638C16.3278 54.3146 15.4527 58.2182 13.3334 61.3009ZM28.0319 47.9667C27.3346 50.2468 25.8579 56.1022 24.9692 55.7739C24.2033 55.5002 23.7386 51.0677 24.8186 46.6898C25.3655 44.4824 26.5278 41.8559 27.2114 40.8342C28.3191 39.1925 29.5222 38.6453 29.8231 39.3202C30.1786 40.196 28.4695 46.5439 28.0319 47.9667ZM40.1599 55.7009C39.8591 55.9017 39.5857 56.0475 39.4626 55.9382C39.3669 55.8653 39.5855 55.5916 39.5855 55.5916C39.5855 55.5916 41.1032 53.4209 41.7049 52.4177C42.0467 51.8342 42.4569 51.1592 42.8944 50.3929V50.6118C42.8946 53.2383 41.0077 54.9895 40.1599 55.7009ZM49.5122 52.8553C49.2934 52.6364 49.3209 51.9615 50.0591 49.8455C50.3464 49.0064 51.0026 47.6019 52.1374 46.2703C52.2741 46.8175 52.3563 47.3463 52.3425 47.839C52.329 51.1224 50.5788 52.3445 49.5122 52.8553Z" fill="#CF649A"/>
</svg>
