<svg width="100" height="82" viewBox="0 0 100 82" xmlns="http://www.w3.org/2000/svg" xmlns:xlink="http://www.w3.org/1999/xlink"><title>bem</title><desc>Created using Figma</desc><use xlink:href="#a" fill="#010101"/><defs><path id="a" d="M0 12.69h23.379v6.834H0V12.69zM0 0h23.379v6.833H0V0zm41.945 25.283H0v6.834h40.373c4.42 0 14.735.097 18.566 6.247v-3.807c-1.866-6.052-7.367-9.274-16.994-9.274zm.098 12.69H0v6.834h40.373c9.824 0 16.012.39 18.566 1.757v-3.026c-1.965-4.783-10.216-5.564-16.896-5.564zm-.098 32.215H0v-6.833h40.373c4.42 0 14.735-.098 18.566-6.248v3.807c-1.866 6.053-7.367 9.274-16.994 9.274zm.098-12.69H0v-6.834h40.373c9.824 0 16.012-.39 18.566-1.757v3.026c-1.965 4.784-10.216 5.565-16.896 5.565zM69.155 82H100v-4.198H70.04c-2.653 0-8.94-.097-11.199-3.71v2.344C59.921 80.047 63.261 82 69.155 82zm-.098-7.712h30.845V70.09H70.039c-5.992 0-9.725-.195-11.198-1.073v1.854c1.178 2.929 6.188 3.417 10.216 3.417z"/></defs></svg>