<svg width="100" height="100" viewBox="0 0 100 100" xmlns="http://www.w3.org/2000/svg" xmlns:xlink="http://www.w3.org/1999/xlink"><title>Boostrap_logo</title><desc>Created using Figma</desc><use xlink:href="#a" transform="scale(15.623)" fill="url(#b)"/><use xlink:href="#c" transform="matrix(15.7043 0 0 15.5422 25.58 19.07)" fill="#FFF"/><defs><linearGradient id="b" x2="1" gradientUnits="userSpaceOnUse" gradientTransform="matrix(5.63763 -5.71247 5.73611 5.6144 -2.499 3.262)"><stop offset="0" stop-color="#070135"/><stop offset="1" stop-color="#612D50"/></linearGradient><path id="a" d="M5.367 0H1.034C.463 0 0 .461 0 1.03V5.37c0 .569.463 1.03 1.034 1.03h4.333c.57 0 1.034-.461 1.034-1.03V1.03C6.4.46 5.938 0 5.367 0z"/><path id="c" d="M1.603 1.543c.163 0 .286-.036.37-.107.084-.071.126-.176.126-.315 0-.137-.042-.24-.126-.312-.084-.073-.207-.11-.37-.11h-.571v.844h.571zm.035 1.743c.207 0 .363-.043.466-.13.106-.088.158-.22.158-.396 0-.172-.051-.301-.155-.387-.104-.087-.26-.13-.47-.13h-.605v1.043h.606zm.96-1.433a.918.918 0 0 1 .514.355c.122.172.182.384.182.635 0 .384-.13.671-.39.86-.262.188-.659.283-1.191.283H0V0h1.55c.555 0 .957.084 1.206.25.25.168.375.436.375.804 0 .194-.046.36-.137.497a.807.807 0 0 1-.397.302z"/></defs></svg>