<svg width="64" height="88" viewBox="0 0 64 88" xmlns="http://www.w3.org/2000/svg" xmlns:xlink="http://www.w3.org/1999/xlink"><title>css3</title><desc>Created using Figma</desc><use xlink:href="#a" transform="translate(.87 17.57)" fill="#2062AF"/><use xlink:href="#b" transform="translate(32 22.69)" fill="#3C9CD7"/><use xlink:href="#c" transform="translate(13.53 .4)"/><use xlink:href="#d" transform="translate(13.88 30.42)" fill="#FFF"/><use xlink:href="#e" transform="translate(13.88 38.5)" fill="url(#f)"/><use xlink:href="#g" transform="translate(31.98 30.42)" fill="url(#h)"/><use xlink:href="#i" transform="translate(13.9 46.04)" fill="url(#j)"/><use xlink:href="#k" transform="translate(13.88 46.04)" opacity=".05"/><use xlink:href="#l" transform="translate(12.25 30.42)" fill="url(#m)"/><use xlink:href="#n" transform="translate(12.25 30.42)" opacity=".05"/><defs><linearGradient id="f" x2="1" gradientUnits="userSpaceOnUse" gradientTransform="matrix(0 -15.0025 -15.0025 0 16.552 15.003)"><stop offset=".387" stop-color="#D1D3D4" stop-opacity="0"/><stop offset="1" stop-color="#D1D3D4"/></linearGradient><linearGradient id="h" x2="1" gradientUnits="userSpaceOnUse" gradientTransform="matrix(0 -15.5944 -15.5944 0 17.491 15.595)"><stop offset=".387" stop-color="#D1D3D4" stop-opacity="0"/><stop offset="1" stop-color="#D1D3D4"/></linearGradient><linearGradient id="j" x2="1" gradientUnits="userSpaceOnUse" gradientTransform="matrix(36.0323 0 0 -36.0323 0 32.172)"><stop offset="0" stop-color="#E8E7E5"/><stop offset="1" stop-color="#FFF"/></linearGradient><linearGradient id="m" x2="1" gradientUnits="userSpaceOnUse" gradientTransform="matrix(39.1194 0 0 -39.1195 0 23.377)"><stop offset="0" stop-color="#E8E7E5"/><stop offset="1" stop-color="#FFF"/></linearGradient><path id="a" d="M56.417 63.226l-25.29 6.81-25.291-6.81L0 0h62.254l-5.837 63.226z"/><path id="b" d="M0 0v59.483l.057.016 20.467-5.511L25.248 0H0z"/><path id="c" d="M4.118 7.881V4.118h5.49V0H0v11.639h9.608V7.88h-5.49zm15.367-3.763h3.839V0h-9.61v4.118c1.286 1.285 1.957 1.9 3.816 3.76-1.087 0-3.816.004-3.816.004v3.757h9.61V7.88l-3.839-3.763zm13.62 0h3.838V0h-9.61v4.118c1.286 1.285 1.957 1.9 3.816 3.76-1.087 0-3.816.004-3.816.004v3.757h9.61V7.88l-3.838-3.763z"/><path id="d" d="M18.101 8.075L0 15.614l.6 7.463 17.501-7.482 18.617-7.96L37.489 0 18.101 8.075z"/><path id="e" d="M0 7.539l.6 7.463L18.101 7.52V0L0 7.539z"/><path id="g" d="M19.388 0L0 8.075v7.52l18.616-7.96L19.388 0z"/><path id="i" d="M0 0l.6 7.464 26.853.085-.6 9.952-8.837 2.488-8.494-2.145-.514-6.177H1.115l1.03 11.925 15.957 4.718 15.871-4.633L36.033 0H0z"/><path id="k" d="M18.101 0H0l.6 7.464 17.501.056V0zm0 19.965l-.086.024-8.493-2.145-.514-6.177H1.115l1.03 11.925L18.1 28.31v-8.345z"/><path id="l" d="M0 0h39.12l-.772 7.635H.944L0 0z"/><path id="n" d="M19.731 0H0l.944 7.635H19.73V0z"/></defs></svg>