<svg width="67" height="100" viewBox="0 0 67 100" xmlns="http://www.w3.org/2000/svg" xmlns:xlink="http://www.w3.org/1999/xlink"><title>foundation</title><desc>Created using Figma</desc><use xlink:href="#a" transform="translate(0 91.81)" fill="#1A4658"/><use xlink:href="#b" transform="translate(1.75)" fill="#EDF7FA"/><use xlink:href="#c" transform="translate(13.04 89.75)" fill="#CDE9EE"/><use xlink:href="#d" transform="translate(1.75)" fill="#CDE9EE"/><use xlink:href="#e" transform="translate(7.1 48.72)" fill="#ABD8D7"/><use xlink:href="#f" transform="translate(40.62 79.78)" fill="#CDE9EE"/><use xlink:href="#g" transform="translate(6.47 73.57)" fill="#83BAC0"/><use xlink:href="#h" transform="translate(17.51 78.32)" fill="#ABD8D7"/><use xlink:href="#i" transform="translate(4.34 18.78)" fill="#545352"/><use xlink:href="#j" transform="translate(4.36 18.78)" fill="#6E7979"/><use xlink:href="#k" transform="translate(48.88 18.78)" fill="#545352"/><use xlink:href="#l" transform="translate(48.85 18.78)" fill="#6E7979"/><use xlink:href="#m" transform="translate(11.19 43.69)" fill="#CDE9EE"/><use xlink:href="#n" transform="translate(38.33 42.86)" fill="#FFF"/><use xlink:href="#o" transform="translate(39.36 44.43)" fill="#474746"/><use xlink:href="#p" transform="translate(25.8 43.69)" fill="#CDE9EE"/><use xlink:href="#q" transform="translate(25.88 42.86)" fill="#FFF"/><use xlink:href="#r" transform="translate(27.4 44.43)" fill="#474746"/><use xlink:href="#s" transform="translate(16.7 42.75)" fill="#545352"/><use xlink:href="#t" transform="translate(24.19 34.29)" fill="#A0D1DE"/><use xlink:href="#u" transform="translate(26.95 58.18)" fill="#B2DCE5"/><use xlink:href="#v" transform="translate(34.33 53.81)" fill="#545352"/><defs><path id="a" d="M67 4.093c0 2.26-14.998 4.093-33.5 4.093C14.998 8.186 0 6.353 0 4.093S17.594 0 33.5 0C52.434 0 67 1.832 67 4.093"/><path id="b" d="M63.172 66.373c-1.037 0-2.154-.482-2.952-4.173-.797-3.692-1.994-7.464-1.994-7.464 1.277 0 1.994-.562 1.994-.562-.877-.401-2.791-1.766-4.067-3.45-1.277-1.686-4.547-4.415-4.547-4.415v-5.457c0-3.692 2.353-6.581 2.353-6.581-1.595 0-2.353 1.444-2.353 1.444V27.93c0-7.704 3.868-11.155 3.868-11.155-1.196-.08-1.994.482-1.994.482.559-5.699 2.294-7.384 2.294-7.384-6.381-1.685-9.94 2.087-9.94 2.087-.719-3.451 2.088-5.458 2.088-5.458-3.27-.723-5.974.24-5.974.24C41.947 1.687 43.944 0 43.944 0c-9.97 0-15.631 7.543-15.631 7.543-.399-3.21.48-6.022.48-6.022C19.141 5.614 16.59 14.678 16.59 14.678c-.637-1.524-.717-4.986-.717-4.986s-3.989 6.722-4.706 11.376c-.718 4.655.638 18.018.638 18.018s-.638-.802-1.994-.963c0 0 1.435 1.605 1.435 5.217 0 0-.558-.482-1.515-.24 0 0 1.515 1.363 1.675 3.69 0 0-1.755 1.205-2.712 2.408 0 0-1.515.08-2.313.321 0 0 1.276.722 1.515 1.365 0 0-3.748 3.852-5.663 6.982 0 0 1.676-1.043 2.872-.722 0 0-2.633 3.21-3.51 8.507 0 0 1.276-.642 1.835-.321 0 0-1.595 3.37-1.675 6.902L0 73.275l1.356.963S.319 78.572.08 81.06c0 0 .797-.803 1.435-1.043 0 0 .878 2.086 2.074 3.691 1.197 1.605 3.909 2.97 5.504 2.97l2.998-.118c-.372 1.615-1.105 2.984-2.651 3.056l-.172.276a1.896 1.896 0 0 0-.095-.004c-.031.471-.977.556-1.237.883-.79.992-1.393 2.356-1.794 3.571-.295.891-.156.891-.36 1.806-.066.3-.375.62-.478.923.861-.291 3.248-.486 4.505-.578l.022 1.12s.207.193.55.334c.012-.003.024-.006.038-.005.117.01.23.027.34.055 1.886-.17 3.2.15 5.386-.033.426-.05.825-.11 1.197-.324.106-.319.12-.338.17-.75.01-.072.01-.148.028-.237l.101-.016a.251.251 0 0 1 .078-.01c.01-.004.017-.008.028-.009l.104-.009a.109.109 0 0 1 .067-.006c.396-.035 1.031-.069 1.427-.09 1.286-.003 2.979.146 2.979.146.104-1.45.209-3.701 2.542-10.262l.578-.361s7.166 2.54 13.815-.103c.526 1.303 2.228 5.683 2.496 8.444.229.323.203.734.211 1.17.007.367.038.736.047 1.103.24-.033 1.103-.14 2.193-.138.395.022 1.03.056 1.427.091a.108.108 0 0 1 .067.006l.103.01c.01 0 .019.004.028.007.027 0 .053.003.078.011l.101.016c.018.09.018.165.029.238.05.411.063.43.17.749.033.02.068.037.102.054 1.191-.152 2.398-.18 3.596-.123.942.045 1.868.223 2.795.392l.002.027c.093.01.184.017.276.023.497.09.996.173 1.498.227.01-.631.006-1.184-.007-1.67.999.049 2.445.249 3.052.338.24.058.436.093.64.138.029.008.058.016.083.025l-.003-.007c.206.046.428.105.721.208-.044-.543-.04-.532-.112-1.213-.055-.526-.43-2.126-1.132-2.785 0 0 .765.332.998.465-.754-1.028-1.12-2.497-3.489-3.51 0 0 .433-.206.828-.257-.413-.257-.729-.357-1.147-.327.142-.406.767-1.431 1.292-1.563 0 0-.322-.225-.848-.05a5.055 5.055 0 0 0-.571.344c-.07.05-.172-.001-.193-.078a17.593 17.593 0 0 1-.37-1.871c4.773-.174 5.442-2.638 5.442-2.638.399.321.399 1.043.399 1.043 2.073-2.729 1.834-5.457 1.834-5.457.479.08.878.4.878.4.24-4.172-1.037-11.315-1.037-11.315.638.32 1.037-.08 1.037-.08-.718-.321-.798-1.124-.798-1.124 1.037.08 1.197-.883 1.197-.883"/><path id="c" d="M6.254 6.907s.187-2.03-.47-3.494c0 0 1.245.085 1.455 3.396 0 0-.873.102-.985.098zM0 .063L.008 0C.012.03.012.055 0 .062zM1.167 6.75l-.012-.003.015-.038-.003.04z"/><path id="d" d="M28.314 7.543c-.398-3.21.48-6.022.48-6.022C19.142 5.614 16.59 14.678 16.59 14.678c-.637-1.524-.717-4.986-.717-4.986s-3.989 6.722-4.706 11.376c-.718 4.655.638 18.018.638 18.018s-.638-.802-1.994-.963c0 0 1.435 1.605 1.435 5.217 0 0-.558-.482-1.515-.24 0 0 1.515 1.363 1.675 3.69 0 0-1.755 1.205-2.712 2.408 0 0-1.515.08-2.313.321 0 0 1.276.722 1.515 1.365 0 0-3.748 3.852-5.663 6.982 0 0 1.676-1.043 2.872-.722 0 0-2.633 3.21-3.51 8.507 0 0 1.276-.642 1.835-.321 0 0-1.595 3.37-1.675 6.902L0 73.275l1.356.963S.319 78.572.08 81.06c0 0 .797-.803 1.435-1.043 0 0 .878 2.086 2.074 3.691 1.197 1.605 3.909 2.97 5.504 2.97l.202-.028c-.09.553-.19 1.104-.335 1.648-.02.077-.123.128-.193.078a5.013 5.013 0 0 0-.57-.345c-.527-.174-.849.051-.849.051.525.132 1.15 1.157 1.293 1.563-.419-.03-.735.07-1.148.327.396.051.828.257.828.257-2.368 1.013-2.735 2.482-3.489 3.51.234-.133.998-.465.998-.465-.702.66-1.076 2.259-1.132 2.785-.071.68-.067.67-.112 1.213.628-.22.933-.242 1.442-.364.785-.115 2.98-.418 3.786-.334l-.127 1.56h.04c.413-.12.75-.104 1.12-.144.005-.43.028-.86.063-1.288-.025-.732.066-1.399.214-2.142l.016-.076c.293-1.015.803-1.592 1.133-1.948.11-.118.206-.257.287-.4.237-.32.426-.67.561-1.044.328-.9.188-2.878-.471-4.809.694 1.006 1.327 1.888 1.627 2.19l-.02-2.457s1.277 1.283 2.419 2.252c.55.483 1.228 1.112 1.71 1.362.034.022.066-.211.104.141.005 0 .01-.07.015-.067.646.365 1.312.655 1.935 1.061.066.043.134.064.2.11.288.2.796.421 1.252.663l.431 5.126c.39-5.387 3.44-10.546 3.44-10.546l-.112-.034c-.944-.294-7.85-2.698-11.932-11.284-.268-.565 1.516.642 1.516.642-1.675-4.093-2.314-10.674-2.314-10.674.559.481 1.117.562 1.117.562-1.196-3.371-1.675-7.544-1.675-11.317-.319-20.304 7.139-24.959 7.139-24.959-1.276-.481-2.632-.441-2.632-.441 1.476-3.572 6.38-8.547 6.38-8.547-1.316.08-6.46 1.484-6.46 1.484 4.267-11.196 8.575-14.165 8.575-14.165-.32 2.688.717 5.538.717 5.538C35.335 1.406 42.77 1.943 42.77 1.943A11.177 11.177 0 0 1 43.946 0c-9.97 0-15.632 7.543-15.632 7.543zM54.467 96.59s-.09-2.909-.747-4.374c0 0 1.715 1.064 1.705 4.424 0 0-.846-.046-.958-.05z"/><path id="e" d="M4.508 32.91C5.638 21.778 5.945 0 5.945 0 3.492 4.876 1.518 13.724 1.518 13.724l.478 1.926-1.076-.481C-.81 21.212.36 29.302.748 31.58c1.1.877 2.412 1.173 3.76 1.329zm-2.314-.241c.346 1.761.719 3.517 1.118 5.267.3.045.636.023.636.023.275-1.077.32-2.743.534-4.792-.787-.092-1.558-.233-2.288-.498z"/><path id="f" d="M6.157 11.202a.116.116 0 0 1-.14-.054 4.895 4.895 0 0 0-.283.063c1.646-1.205 1.797-2.48 1.797-2.48-1.091.496-2.25.68-2.814.746C8.521 6.16 9.153 0 9.153 0 7.595 1.924 5.384 3.55 3.675 4.642l.004-.008s-1.145.644-2.203 1.146a.12.12 0 0 0-.127.06C.805 6.093.299 6.3 0 6.35c0 0 .88 1.637 1.249 2.52l-.072.058s1.274 3.031 1.738 5.967c.049.496.087.93.113 1.263.022.43.053.726.053.726 1.685-.251 4.065-.007 4.065-.007-.011.276.14.94.167 1.06.8-.11 1.608-.157 2.415-.163-.01-2.846-.135-7.575-3.571-6.572z"/><path id="g" d="M5.04 8.91C2.399 8.46 0 5.406 0 5.406c1.927 2.061 4.325 2.338 4.325 2.338C4.642 5.388 2.708 0 2.708 0 4.14 1.795 4.924 3.87 5.352 5.57L5.04 8.91"/><path id="h" d="M0 0s2.079 3.687 3.903 5.282c1.97 1.721 3.8 4.153 4.577 5.628 0 0 .987-2.307 1.525-3.11 0 0-5.832-1.72-10.005-7.8zm27.133 7.19c.29-.409.62-.79.936-1.178.517-.637 1.108-1.255 1.543-1.949-.75.564-1.585 1.053-2.438 1.57C24.697 7.322 22.972 7.8 22.972 7.8c.538.803 1.525 3.11 1.525 3.11.47-.893 1.328-2.136 2.367-3.36.087-.122.184-.239.27-.36z"/><path id="i" d="M12.386 4.63c-.227.017-.953.035-.953.035C4.857 5.127.023 0 .023 0s-.432 4.003 2.425 7.51c2.857 3.507 8.648 4.107 8.648 4.107.188.82-.22 2.65-.22 2.65S12.57 12.382 13 8.81c.302-2.502-.474-4.19-.614-4.18z"/><path id="j" d="M12.363 4.63c-.218.013-.953.035-.953.035C4.834 5.127 0 0 0 0s3.004 8.748 13.038 8.057c0 0 .277-1.618-.675-3.426z"/><path id="k" d="M.683 4.63c.227.017.953.035.953.035C8.212 5.127 13.046 0 13.046 0s.432 4.003-2.425 7.51c-2.858 3.507-8.648 4.107-8.648 4.107-.188.82.22 2.65.22 2.65S.498 12.382.068 8.81c-.302-2.502.474-4.19.614-4.18z"/><path id="l" d="M.713 4.63c.218.013.952.035.952.035C8.242 5.127 13.075 0 13.075 0S10.071 8.748.038 8.057c0 0-.278-1.618.675-3.426z"/><path id="m" d="M2.1 9.362s-4.726 17.094 0 28.05V9.361zm47.07 27.04c-2.334 1.792-4.761 1.905-4.761 1.905-.108-2.34 2.434-7.457 2.434-7.457-.54.321-1.023.732-1.426 1.216l-.017-1.717 1.835-1.525-1.475-1.204 1.874-7.584-1.795 1.204s-.558-10.794-.16-15.45c0 0-2.273-2.287-3.389-3.21 0 0 .21 3.324.452 8.634 1.019 4.26 2.6 13.075.632 20.828.023 1.572.04 3.168.049 4.78 0 0 .98 3.428 1.3 5.836 0 0 .319.09.797.01l-.036-3.687c2.465-.75 3.685-2.579 3.685-2.579zm-22.115-33.1c0 1.823 1.16 3.3 2.592 3.3 1.432 0 2.593-1.477 2.593-3.3C32.24 1.478 31.08 0 29.647 0c-1.432 0-2.592 1.478-2.592 3.302z"/><path id="n" d="M0 3.25C0 5.045 1.143 6.5 2.553 6.5s2.552-1.455 2.552-3.25S3.962 0 2.553 0C1.143 0 0 1.455 0 3.25z"/><path id="o" d="M.838 0a1.011 1.011 0 0 0-.034.251c0 .458.296.829.662.829.325 0 .594-.293.65-.68.208.275.337.646.337 1.055 0 .848-.55 1.535-1.227 1.535S0 2.303 0 1.455C0 .778.351.204.838 0"/><path id="p" d="M0 3.302c0 1.823 1.16 3.3 2.593 3.3 1.431 0 2.592-1.477 2.592-3.3C5.185 1.478 4.025 0 2.593 0 1.16 0 0 1.478 0 3.302z"/><path id="q" d="M0 3.25C0 5.045 1.143 6.5 2.553 6.5s2.552-1.455 2.552-3.25S3.962 0 2.553 0C1.143 0 0 1.455 0 3.25z"/><path id="r" d="M.838 0a1.011 1.011 0 0 0-.034.251c0 .458.296.829.662.829.324 0 .594-.293.65-.68.208.275.337.646.337 1.055 0 .848-.55 1.535-1.227 1.535S0 2.303 0 1.455C0 .778.351.204.838 0"/><path id="s" d="M30.883 6.832c-.163.493-.715.624-2.289.93l-.107.021c-1.542.298-4.299.259-5.809.037a8.008 8.008 0 0 1-.187-.03c-1.4-.237-1.56-.42-2.01-1.15-.464-.755-.75-2.973-.803-3.41l-.002-.022c-.056-.463-.084-.694.506-.96.794-.358 4.318-.858 5.761-.924 1.14-.05 3.556.11 4.66.272.174.026.302.05.381.07.128.034.596.263.572.764-.031.66-.453 3.737-.673 4.402zM15.517 3.208l-.003.022c-.053.437-.338 2.655-.803 3.41-.45.73-.61.913-2.01 1.15-.059.011-.122.02-.187.03-1.51.222-4.267.26-5.809-.037l-.107-.021c-1.573-.306-2.126-.437-2.288-.93-.22-.665-.642-3.742-.674-4.402-.023-.501.445-.73.572-.764.079-.02.207-.045.38-.07 1.105-.163 3.521-.322 4.661-.272 1.444.066 4.967.566 5.76.924.591.266.563.497.508.96zM32.904.278A29.287 29.287 0 0 0 27.308.04c-3.151.163-5.852.603-7.465.866-.481.078-.86.14-1.148.18l-.315.042a9.55 9.55 0 0 1-.784.09c-.197-.01-.43-.041-.783-.09l-.315-.043c-.289-.039-.667-.1-1.149-.18C13.736.644 11.036.204 7.884.04a29.285 29.285 0 0 0-5.595.238S1.055.436 0 .885l.201 1.35s1.115-.268 2.204-.414C2.607 3.724 3 6.168 3 6.168l.006.076c.03.123.058.243.088.374.224.96.447 1.526 1.343 1.865.88.334 2.962.644 5.062.753.78.04 1.667-.008 2.564-.14 1.329-.194 2.531-.555 2.99-.897.67-.497 1.027-1.747 1.263-2.575l.071-.244c.084-.282.157-.579.227-.866.101-.413.205-.84.294-.987.016-.025.091-.114.384-.157.09-.014.192-.02.303-.022.112.002.214.009.304.022.292.043.367.132.383.158.09.147.194.573.294.986.07.287.143.584.227.866l.07.244c.238.827.595 2.078 1.264 2.575.46.342 1.661.702 2.99.898a13.3 13.3 0 0 0 2.564.139c2.1-.11 4.182-.419 5.062-.753.896-.339 1.119-.904 1.343-1.865l.088-.374.006-.076s.394-2.444.597-4.347a25.43 25.43 0 0 1 2.203.413l.202-1.349c-1.056-.45-2.29-.607-2.29-.607z"/><path id="t" d="M5.007 5.315S2.123 3.93.473 6.5c0 0-.17-2.555 2.158-2.84 2.329-.286 2.376 1.654 2.376 1.654zM3.925 1.56S1.252.29.035 2.73c0 0-.398-2.132 1.51-2.646 1.907-.515 2.38 1.476 2.38 1.476zm11.41 5.32s2.24-1.075 3.521.92c0 0 .132-1.983-1.676-2.205-1.809-.222-1.845 1.285-1.845 1.285zm1.593-3.554s2.265-.369 2.653 1.715c0 0 .753-1.504-.561-2.3-1.314-.798-2.092.585-2.092.585"/><path id="u" d="M2.047 1.673S3.629.603 4.563.456c0 0 .203 2.019 1.131 3.013 0 0 2.003-1.816 3.984-1.945 0 0 .51 1.107 1.34 1.517l-.004.013c.3.189.667.379 1.022.458 0 0 1.137-.692 1.466-1.956 0 0 .11 2.669-1.556 4.123 0 0-1.27-.623-2.184-1.621-.275-.27-.56-.583-.699-.837 0 0-2.937 2.09-3.044 3.283 0 0-2.12-2.08-2.843-3.682 0 0-1.415.449-1.808.739C1.368 3.56.231 1.689 0 0c0 0 1.368 1.315 2.047 1.673z"/><path id="v" d="M.003.797c-.117-.025 2.98.216 6.02.107 0 0 .162-.584.395-.904 0 0-.05.982.223 1.183 0 0-1.522.603-3.056.598 0 0 1.672-.28 2.233-.57 0 0-3.051.17-5.815-.414z"/></defs></svg>