<svg width="45" height="100" viewBox="0 0 45 100" xmlns="http://www.w3.org/2000/svg" xmlns:xlink="http://www.w3.org/1999/xlink"><title>gulp-icon 2</title><desc>Created using Figma</desc><use xlink:href="#a" transform="translate(0 .13)" fill="#D34A47"/><use xlink:href="#b" transform="translate(26.1 25.7)" fill="#FFF"/><use xlink:href="#c" transform="translate(.16)" fill="#D34A47"/><defs><path id="a" d="M34.718 96.856l.959-15.987 2.647-4.523s-6.025 2.467-16.113 2.467-16.022-2.421-16.022-2.421l2.967 4.933 1.05 15.53c0 1.666 5.487 3.015 12.256 3.015s12.256-1.35 12.256-3.014zm-3.024-74.658l2.012-7.96L44.851 2.504 41.913 0 30.115 12.5l-2.337 9.51a156.604 156.604 0 0 0-5.278-.088C10.074 21.922 0 23.34 0 25.087c0 1.748 10.074 3.165 22.5 3.165S45 26.835 45 25.087c0-1.287-5.463-2.394-13.306-2.889z"/><path id="b" d="M4.424 1.088s-.436.097-1.718.103C1.424 1.196.513 1.183.15.85.053.764 0 .588 0 .469.001.24.162.107.367.023l.195.305C.477.357.429.39.429.428c0 .173 1.311.29 2.315.278C3.747.694 4.96.61 4.96.44c0-.052-.092-.1-.251-.138L4.903 0c.26.08.487.237.487.507-.003.46-.587.53-.966.58z"/><path id="c" d="M44.672 2.656c.28-.323-.145-1.152-.95-1.85-.805-.697-1.685-1-1.966-.676-.28.324.145 1.152.95 1.85.805.697 1.685 1 1.966.676zm-10.647 55.28c-.264-2.544 5.558-6.227 4.064-6.344-3.217.184-4.818 3.772-6.436 7.53-.593 1.377-2.623 7.25-3.954 6.528-1.33-.723 1.725-5.553 2.582-8.42-.988.724-4.613 3.542-5.547.903-1.502 1.276-4.71 1.968-4.349-1.385-.799 1.416-2.592 3.394-4.744 2.572-2.826-1.079 1.638-10.088 2.748-9.633 1.11.454-.224 2.506-.573 3.303-.769 1.754-1.657 3.959-1.064 4.41 1.016.774 3.781-2.925 3.843-3.006.517-.684 1.99-5.157 3.178-4.643 1.187.514-2.962 6.419-1.41 7.59.312.237 1.592-.145 2.371-.988.504-.546.33-1.754 2.01-5.762 1.68-4.008 3.177-9 4.329-8.619 1.152.38.202 2.942-.211 3.897-1.94 4.482-5.292 11.888-3.711 11.327 1.581-.56 2.405-.593 3.953-2.407 1.549-1.813 1.477-4.8 2.51-4.736 1.032.063.859 1.02.608 1.75 1.016-1.163 4.816-3.613 5.733-1.187 1.087 2.873-5.436 7.023-3.81 6.81 1.586-.205 4.155-1.834 5.252-3.314l3.019-27.16s-3.038 2.516-22.365 2.516C2.724 29.468 0 27.005 0 27.005l2.57 24.79c1.365-3.88 4.604-11.728 9.71-11.464 2.324.12 5.425 4.595 2.768 4.747-1.124.064-1.238-2.234-2.57-2.572-.96-.243-2.298.538-3.162 1.385-1.724 1.689-5.432 8.35-4.942 11.67.624 4.235 5.838-1.47 6.72-3.164.622-1.194 1.042-4.729 2.4-4.358 1.36.371-.118 4.02-1.103 7.245-1.107 3.622-1.688 7.443-3.075 7.003-1.388-.44.872-5.115.79-5.934-1.304 1.204-3.706 4.251-6.779 2.743L4.924 74.49s4.242 3.355 17.022 3.355c12.78 0 17.18-3.302 17.18-3.302l1.982-17.83c-1.622 1.58-6.755 4.385-7.083 1.222z"/></defs></svg>