<svg width="70" height="100" viewBox="0 0 70 100" xmlns="http://www.w3.org/2000/svg" xmlns:xlink="http://www.w3.org/1999/xlink"><title>html5</title><desc>Created using Figma</desc><use xlink:href="#a" transform="translate(0 19.65)" fill="#E44D26"/><use xlink:href="#b" transform="translate(35 25.57)" fill="#F16529"/><use xlink:href="#c" transform="translate(13.03 34.43)" fill="#EBEBEB"/><use xlink:href="#d" transform="translate(6.51)"/><use xlink:href="#e" transform="translate(34.97 34.43)" fill="#FFF"/><defs><path id="a" d="M6.37 72.316L0 0h70l-6.377 72.305-28.666 8.043L6.37 72.316z"/><path id="b" d="M0 68.287l23.163-6.5L28.613 0H0v68.287z"/><path id="c" d="M21.974 17.952H10.38l-.802-9.083h12.397V0H0l.21 2.38 2.154 24.44h19.61v-8.868zm0 23.034l-.038.01-9.76-2.667-.624-7.073H2.755l1.228 13.926 17.951 5.043.04-.011v-9.228z"/><path id="d" d="M0 0h4.453v4.453h4.074V0h4.453v13.485H8.527V8.97H4.453v4.515H0V0zm18.837 4.472h-3.92V0h12.296v4.472h-3.922v9.013h-4.454V4.472zM29.165 0h4.643l2.857 4.738L39.519 0h4.645v13.485h-4.436V6.801l-3.064 4.795h-.076L33.522 6.8v6.684h-4.358V0zM46.38 0h4.455v9.028h6.263v4.457H46.38V0z"/><path id="e" d="M0 17.952v8.869h10.791L9.774 38.324 0 40.994v9.226l17.965-5.038.132-1.5 2.06-23.349.213-2.381H0zM0 0v8.87h21.168l.175-1.994.4-4.497L21.951 0H0z"/></defs></svg>