<svg width="100" height="100" viewBox="0 0 100 100" xmlns="http://www.w3.org/2000/svg" xmlns:xlink="http://www.w3.org/1999/xlink"><title>JavaScript_logo</title><desc>Created using Figma</desc><use xlink:href="#a" fill="#F0DB4F"/><use xlink:href="#b" transform="translate(26.28 45.36)" fill="#323330"/><defs><path id="a" d="M100 0H0v100h100V0z"/><path id="b" d="M65.532 30.786c-.732-4.563-3.707-8.394-12.519-11.968-3.06-1.407-6.473-2.415-7.49-4.734-.361-1.35-.409-2.11-.18-2.928.655-2.652 3.82-3.479 6.33-2.718 1.616.541 3.146 1.787 4.069 3.773 4.315-2.794 4.306-2.775 7.319-4.695-1.103-1.711-1.692-2.5-2.415-3.232-2.595-2.9-6.13-4.392-11.787-4.278-.979.124-1.967.257-2.946.38-2.824.713-5.514 2.196-7.092 4.183-4.733 5.37-3.384 14.772 2.377 18.64 5.675 4.26 14.011 5.229 15.076 9.211 1.036 4.877-3.584 6.455-8.175 5.894-3.384-.703-5.266-2.424-7.3-5.551-3.746 2.167-3.746 2.167-7.596 4.382.913 1.996 1.873 2.9 3.403 4.63 7.244 7.347 25.371 6.986 28.622-4.136.133-.38 1.008-2.928.304-6.853zM28.08.596h-9.354c0 8.08-.038 16.102-.038 24.182 0 5.143.266 9.857-.57 11.302-1.369 2.842-4.915 2.49-6.53 1.94-1.645-.809-2.482-1.959-3.451-3.584-.266-.466-.466-.827-.532-.856C5.067 35.13 2.538 36.69 0 38.238c1.264 2.595 3.127 4.848 5.513 6.312 3.565 2.139 8.356 2.794 13.365 1.644 3.26-.95 6.075-2.918 7.548-5.912 2.13-3.926 1.673-8.679 1.654-13.936.047-8.574 0-17.148 0-25.75z"/></defs></svg>