<svg width="200" height="45" viewBox="0 0 200 45" xmlns="http://www.w3.org/2000/svg" xmlns:xlink="http://www.w3.org/1999/xlink"><title>jquery-1</title><desc>Created using Figma</desc><use xlink:href="#a" transform="translate(170.58 3.33)" fill="#1A1918"/><use xlink:href="#b" transform="translate(39.59)" fill="#1A1918"/><use xlink:href="#c" transform="translate(0 8.9)" fill="#21609B"/><use xlink:href="#d" transform="translate(10.36 5.29)" fill="#21609B"/><use xlink:href="#e" transform="translate(19.41 3.62)" fill="#21609B"/><defs><path id="a" fill-rule="evenodd" d="M21.02 0l8.397.046S13.805 20.992 12.53 22.699c-.414.553-1.043 1.149-1.362 1.888-.806 1.858-1.634 5.933-1.634 5.933l-7.684.038s1.196-4.248 1.146-6.51c-.043-1.977-1.062-3.951-1.634-5.933C.784 16.107 0 12.18 0 12.18h7.9l1.089 4.315L21.019 0z"/><path id="b" fill-rule="evenodd" d="M136.112 7.743c1.549.925 2.5 6.028 2.5 6.028s-8.108.118-12.521.118h-3.814l-4.63 19.956h-7.082s4.407-21.687 5.448-25.619c.337-1.273 2.31-1.055 5.641-1.055h5.319c3.435 0 7.45-.434 9.139.572zm-32.969 9.72s.22-1.282-.749-2.765c-.829-1.264-1.593-1.559-3.773-1.626-6.153-.192-6.033 4.323-6.033 4.323l10.555.067zm6.673-5.17c.901 3.22-.817 10.787-.817 10.787s-8.975-.149-13.892 0c-1.528.046-3.358-.165-3.813.54-.64.986.234 2.505.975 3.146.853.739 2.514.823 3.11.898 3.991.502 12.342.13 12.342.13l-1.446 6.342s-11.802.586-17.705-.809c-1.165-.275-2.258-.83-2.996-1.618-.202-.215-.376-.509-.567-.763-.152-.202-.596-.868-.795-1.394-1.348-3.557.158-10.372 1.634-14.023.172-.423.387-.96.614-1.416.283-.569.522-1.21.748-1.55.152-.235.341-.386.499-.608.182-.261.394-.515.59-.741.546-.626 1.164-1.068 1.908-1.618 2.459-1.823 6.91-3.239 12.257-2.697 2.013.205 5.053.917 6.537 2.967.397.547.594 1.634.817 2.427zM77.335 7.146l6.866-.04s-3.827 17.974-5.777 26.738h-7.9c-5.52 0-10.437.677-12.529-3.236-2.029-3.8-.092-10.048.817-14.293.643-3.004 1.997-9.145 1.997-9.145l7.115-.064s-2.01 9.56-2.847 14.333c-.3 1.71-.917 3.32-.272 4.584.613 1.203 1.471 1.29 4.085 1.349.829.02 3.542 0 3.542 0l4.903-20.226zM45.194 20.09c.718-2.529 1.767-5.272 1.634-7.55-.144-2.438-2.209-4.658-3.541-5.124-4.012-1.403-7.768.558-9.261 2.157-1.931 2.071-2.585 4.49-3.269 7.821-.509 2.473-.926 5.083 0 7.011 1.64 3.41 6.753 2.665 12.257 2.698.817-2.169 1.493-4.604 2.18-7.013zm9.533-9.977c.784 5.646-2.225 11.88-4.298 17.3 2.114.188 3.966-.03 4.1.126.138.203-1.418 6.47-1.96 6.486-1.677.043-7.236.09-9.555.09-7.564 0-14.64.487-18.249-3.237-1.465-1.513-2.479-4.108-2.724-5.933-.409-3.047.104-6.403.817-9.169.646-2.498 1.474-4.854 2.724-7.012C28.761 3.272 34.29-.805 43.56.135c1.798.184 4.38.963 5.993 1.888.111.065.501.372.59.426 2.18 1.373 4.165 4.65 4.585 7.665zM21.259 7.179c-.457 2.063-.915 4.402-1.397 6.44h-7.627c.591-2.26 1.044-4.506 1.635-6.472 2.44 0 4.71.032 7.39.032zm-9.296 8.328h7.355c-.962 5.27-2.866 13.77-4.359 19.687-.934 3.703-1.558 6.405-4.085 8.36-.227.175-.357.092-.545.27-.466.44-2.62.95-3.813 1.078-1.94.208-4.132.027-6.516-.021.624-2.257 1.33-4.968 1.885-6.99 5.81.696 5.957-4.742 7.082-9.978.65-3.026 2.623-11.192 2.996-12.406z"/><path id="c" fill-rule="evenodd" d="M34.392 20.36l-.157.405c-2.686 5.178-7.445 8.355-14.232 8.495-3.174.064-6.197-.742-8.172-1.618-4.262-1.896-7.847-5.412-9.805-9.17C-.783 13.088-1.29 5.597 4.55 0c.09 0-.708 1.213-.618 1.213l-.16.518c-4.209 13.044 8.756 24.223 21.36 22.944 3.028-.307 6.89-1.95 9.26-4.314z"/><path id="d" fill-rule="evenodd" d="M16.41 18.576c3.17.02 6.482-1.446 8.444-3.506-1.716 4.312-6.685 7.084-13.347 6.202C5.928 20.533.614 14.976.067 9.406-.333 5.353 1.093 2.934 3.444 0c-.817 1.535-1.122 2.718-1.198 3.473-.893 8.768 7.074 15.056 14.163 15.103z"/><path id="e" fill-rule="evenodd" d="M15.485 9.352c-.493 1.12-3.33 3.234-4.584 3.498-4.963 1.047-8.14-1.283-9.806-3.935C.848 8.52.39 7.438.308 7.163-.337 4.989-.04 1.702 1.885 0c-.58 1.618-.664 3.498-.359 4.72.185.738.749 2.028 1.313 2.84 1.026 1.477 1.677 1.836 2.996 2.62.594.354 1.23.637 1.506.715 1.25.364 3.89 1.324 8.145-1.543"/></defs></svg>