<svg width="77" height="100" viewBox="0 0 77 100" xmlns="http://www.w3.org/2000/svg" xmlns:xlink="http://www.w3.org/1999/xlink"><title>modx</title><desc>Created using Figma</desc><use xlink:href="#a" transform="translate(35.59 7.18)" fill="url(#b)"/><use xlink:href="#c" transform="translate(35.59 11.05)" opacity=".15"/><use xlink:href="#d" transform="translate(45.29 33.58)" fill="url(#e)"/><use xlink:href="#f" transform="translate(45.29 33.58)" opacity=".15"/><use xlink:href="#g" transform="translate(11.85)" fill="url(#h)"/><use xlink:href="#i" transform="translate(5.13 33.58)" fill="url(#j)"/><use xlink:href="#k" transform="translate(0 81.78)"/><defs><linearGradient id="b" x2="1" gradientUnits="userSpaceOnUse" gradientTransform="matrix(-26.348 -17.3217 29.3586 -15.5454 19.732 21.08)"><stop offset="0" stop-color="#80C3E6"/><stop offset="1" stop-color="#3380C2"/></linearGradient><linearGradient id="e" x2="1" gradientUnits="userSpaceOnUse" gradientTransform="matrix(-19.6955 -13.1314 7.67226 -33.7096 25.502 43.756)"><stop offset="0" stop-color="#F38649"/><stop offset=".185" stop-color="#F28147"/><stop offset=".409" stop-color="#EF7242"/><stop offset=".654" stop-color="#EA5A3A"/><stop offset=".911" stop-color="#E4382E"/><stop offset="1" stop-color="#E12A29"/></linearGradient><linearGradient id="h" x2="1" gradientUnits="userSpaceOnUse" gradientTransform="matrix(37.6798 -23.7711 28.8521 31.0442 -16.548 16.913)"><stop offset="0" stop-color="#42AB4A"/><stop offset="1" stop-color="#ADD155"/></linearGradient><linearGradient id="j" x2="1" gradientUnits="userSpaceOnUse" gradientTransform="matrix(30.6275 -49.4841 83.6237 18.1237 -28.986 32.331)"><stop offset="0" stop-color="#42AB4A"/><stop offset="1" stop-color="#ADD155"/></linearGradient><path id="a" d="M25.665 23.856L40.433 0H4.908L0 7.95l25.665 15.906z"/><path id="c" d="M0 4.08L2.514 0l23.15 19.986L0 4.081z"/><path id="d" d="M23.78 40.7V4.835L16.116 0 0 25.7l23.78 15z"/><path id="f" d="M0 25.698l3.981 2.51L16.116 0 0 25.698z"/><path id="g" d="M0 0v35.864L8.22 40.7l41.18-9.672L0 0z"/><path id="i" d="M14.768 9.85L0 33.303h35.523L56.278 0l-41.51 9.85z"/><path id="k" d="M.002 15.49h2.065L3.1 2.757H.984V.298h5.68l3.885 9.955c.295.87.418 1.465.418 1.465h.049s.123-.596.443-1.465l3.86-9.955h5.679v2.458h-2.09l1.008 12.734h2.066v2.433h-7.156v-2.432h1.942l-.639-8.886c-.049-.622.074-1.639.074-1.639h-.074s-.197.967-.418 1.564l-3.344 8.116H9.613L6.27 6.53c-.222-.597-.393-1.564-.393-1.564h-.1s.124 1.016.075 1.639l-.639 8.885H7.18v2.433H0v-2.432h.002zM32.24 0c5.163 0 9.047 3.947 9.047 8.988 0 5.188-3.884 9.233-9.047 9.233-5.164 0-9.049-4.045-9.049-9.233 0-5.041 3.885-8.988 9.05-8.988zm0 15.366c3.147 0 5.73-2.755 5.73-6.38 0-3.476-2.582-6.132-5.73-6.132-3.148 0-5.73 2.657-5.73 6.133 0 3.625 2.583 6.38 5.73 6.38zm10.65.125h2.088V2.756h-2.089V.298h7.548c1.404 0 2.51.075 3.64.421 3.393 1.018 5.656 4.047 5.656 8.39 0 4.171-2.091 7.175-5.41 8.292-1.181.421-2.41.52-3.861.52h-7.573v-2.43zm7.425-.174c1.105 0 1.991-.1 2.852-.448 1.992-.82 3.246-2.88 3.246-5.759 0-2.98-1.328-5.014-3.37-5.808-.884-.348-1.696-.397-2.728-.397h-2.116v12.412h2.116zm11.269.174h1.55l4.4-6.504-4.279-6.231h-1.55V.298h6.592v2.458h-1.721l2.41 3.65c.32.395.492.744.492.744h.048c0 .024.17-.324.467-.744l2.335-3.65h-1.672V.298H77v2.458h-1.525L71.05 9.234 75.4 15.49h1.55v2.433h-6.615v-2.432h1.72l-2.434-3.7a5.395 5.395 0 0 1-.49-.768h-.05c-.048 0-.197.349-.466.769L66.28 15.49h1.696v2.432h-6.392v-2.432z"/></defs></svg>