<svg width="150" height="46" viewBox="0 0 150 46" xmlns="http://www.w3.org/2000/svg" xmlns:xlink="http://www.w3.org/1999/xlink"><title>opencart</title><desc>Created using Figma</desc><use xlink:href="#a" fill="url(#b)"/><defs><linearGradient id="b" x2="1" gradientUnits="userSpaceOnUse" gradientTransform="matrix(0 -36.3878 118.656 0 15.672 36.388)"><stop offset="0" stop-color="#04B6F0"/><stop offset="1" stop-color="#3ECAF0"/></linearGradient><path id="a" d="M14.868 23.98c0 3.535-.666 6.512-2.003 8.922-1.395 2.525-3.208 3.793-5.428 3.793-2.225 0-4.033-1.268-5.428-3.793C.67 30.492 0 27.515 0 23.98c0-3.544.671-6.52 2.009-8.921 1.41-2.502 3.224-3.752 5.428-3.752 2.22 0 4.033 1.25 5.428 3.752 1.337 2.4 2.003 5.377 2.003 8.921zm-4.419 0c0-1.6-.243-2.952-.729-4.044-.544-1.242-1.305-1.86-2.283-1.86s-1.74.618-2.284 1.86c-.491 1.092-.734 2.443-.734 4.044 0 1.592.243 2.96.734 4.085.545 1.242 1.306 1.86 2.284 1.86.978 0 1.74-.618 2.283-1.86.486-1.125.73-2.493.73-4.085zm20.398 0c0 3.302-.603 6.186-1.814 8.654-1.294 2.702-2.965 4.06-4.994 4.06-1.433 0-2.648-.658-3.642-1.958 0 .3.021 1.025.064 2.185a81.94 81.94 0 0 1 .063 2.867c0 4.145-.783 6.212-2.347 6.212-.64 0-1.162-.359-1.58-1.068-.413-.716-.619-1.576-.619-2.592V15.384c0-.984.212-1.835.635-2.551.422-.71.946-1.067 1.57-1.067.94 0 1.627.74 2.06 2.218.926-1.785 2.189-2.677 3.79-2.677 2.035 0 3.7 1.333 5 4.01 1.206 2.477 1.814 5.362 1.814 8.663zm-4.42 0c0-1.6-.247-2.952-.734-4.044-.545-1.242-1.305-1.86-2.283-1.86s-1.74.618-2.284 1.86c-.486 1.092-.729 2.443-.729 4.044 0 1.592.243 2.96.73 4.085.544 1.242 1.305 1.86 2.283 1.86s1.738-.618 2.283-1.86c.487-1.125.734-2.493.734-4.085zm20.498-.75c0 1.167-.174 1.967-.523 2.418-.35.441-.893.666-1.628.666h-7.976c0 1.335.396 2.36 1.19 3.076.639.56 1.421.844 2.346.844.72 0 1.58-.377 2.59-1.118 1.01-.75 1.66-1.118 1.94-1.118.513 0 .946.292 1.305.892.354.593.534 1.31.534 2.136 0 1.908-.904 3.394-2.712 4.46-1.379.8-2.78 1.209-4.212 1.209-2.304 0-4.165-1.209-5.587-3.618-1.422-2.41-2.135-5.437-2.135-9.097 0-3.486.74-6.462 2.22-8.946 1.474-2.485 3.309-3.727 5.497-3.727 2.035 0 3.736 1.175 5.1 3.526 1.364 2.352 2.051 5.153 2.051 8.398zm-4.418-1.751a5.206 5.206 0 0 0-.936-2.911c-.603-.875-1.242-1.308-1.919-1.308-.697 0-1.348.433-1.95 1.308a5.018 5.018 0 0 0-.904 2.91h5.709zm19.265 11.096c0 1.018-.206 1.877-.618 2.594-.418.71-.941 1.068-1.58 1.068-1.544 0-2.316-1.935-2.316-5.795 0-.742.032-1.91.095-3.518.07-1.602.101-2.777.101-3.52 0-4.094-.84-6.144-2.516-6.144-1.676 0-2.51 2.05-2.51 6.145 0 .742.026 1.917.073 3.519.053 1.609.08 2.776.08 3.518 0 3.86-.762 5.795-2.284 5.795-.64 0-1.162-.359-1.575-1.068-.417-.717-.624-1.576-.624-2.594V15.376c0-1.01.207-1.867.624-2.56.413-.7.941-1.05 1.58-1.05 1.058 0 1.792.74 2.204 2.218.714-1.785 1.977-2.677 3.785-2.677 1.676 0 3.008.7 3.985 2.092 1 1.494 1.496 3.544 1.496 6.154v13.022zm13.863-.74c0 1.575-.648 2.825-1.95 3.743-1.03.741-2.15 1.122-3.281 1.117-2.226 0-4.033-1.268-5.429-3.793-1.337-2.41-2.008-5.387-2.008-8.922 0-3.544.682-6.536 2.05-8.988 1.37-2.46 3.16-3.685 5.387-3.685 1.284 0 2.389.3 3.309.892 1.283.8 1.922 2.05 1.922 3.752 0 .858-.168 1.617-.507 2.276-.338.65-.771.984-1.3.984-.36 0-.877-.192-1.554-.566-.676-.385-1.215-.568-1.611-.568-1.052 0-1.872.592-2.458 1.775-.545 1.068-.82 2.435-.82 4.128 0 1.592.244 2.944.736 4.036.543 1.276 1.31 1.909 2.288 1.909.433 0 1.025-.2 1.78-.61.757-.399 1.302-.607 1.64-.607.492 0 .914.333 1.274.983.354.659.532 1.367.532 2.143zm16.064.74c0 1.018-.206 1.877-.619 2.594-.417.71-.945 1.068-1.586 1.068-.962 0-1.648-.743-2.06-2.219-.925 1.785-2.189 2.677-3.79 2.677-2.05 0-3.732-1.36-5.033-4.06-1.184-2.468-1.78-5.353-1.78-8.655 0-3.301.596-6.186 1.78-8.663 1.323-2.677 2.998-4.01 5.033-4.01 1.601 0 2.865.892 3.79 2.677.412-1.477 1.098-2.218 2.06-2.218.624 0 1.148.358 1.571 1.067.422.716.634 1.559.634 2.543v17.2zM87.28 23.98c0-1.6-.243-2.952-.73-4.044-.565-1.242-1.326-1.86-2.282-1.86-.978 0-1.74.618-2.284 1.86-.49 1.092-.734 2.443-.734 4.044 0 1.592.237 2.96.707 4.085.561 1.242 1.333 1.86 2.31 1.86.978 0 1.739-.618 2.284-1.86.486-1.125.73-2.493.73-4.085zm15.693-9.063c0 1.492-.46 2.517-1.38 3.076-.85.45-1.697.91-2.542 1.384-.925.834-1.385 2.385-1.385 4.637v8.561c0 1.018-.212 1.877-.623 2.594-.418.71-.947 1.068-1.586 1.068-.644 0-1.174-.359-1.585-1.068-.419-.717-.624-1.576-.624-2.594V15.376c0-1.01.205-1.867.618-2.56.417-.7.947-1.05 1.586-1.05 1.057 0 1.79.74 2.204 2.218.946-1.785 1.961-2.677 3.055-2.677.623 0 1.157.357 1.601 1.066.439.718.661 1.568.661 2.544zm11.528.317c0 1.55-.386 2.526-1.152 2.943-.376.209-1.164.317-2.363.317v14.081c0 1.018-.212 1.877-.623 2.594-.419.71-.947 1.068-1.587 1.068-.622 0-1.152-.359-1.575-1.068-.422-.717-.634-1.576-.634-2.594V18.494c-.909 0-1.57-.184-1.987-.541-.57-.501-.852-1.41-.852-2.72 0-1.308.291-2.2.878-2.676.396-.35 1.052-.533 1.961-.533V9.04c0-3.51.734-5.26 2.209-5.26 1.47 0 2.21 1.75 2.21 5.26v2.985c1.199 0 1.987.108 2.363.316.766.417 1.152 1.385 1.152 2.894zM150 11c-.012-2.14-2.519-3.112-9.008-3.112-15.228 0-19.091-1.026-23.225-7.888 1.739 4.12 2.69 11.849 18.785 11.464 16.793-.408 6.548 6.83 3.568 15.008 5.375-7.568 9.864-12.556 9.88-15.441V11zm-21.398 21.976c0 .962-.242 1.884-.673 2.564-.431.68-1.016 1.063-1.626 1.063-1.274 0-2.304-1.625-2.304-3.627 0-.477.059-.95.175-1.391.116-.441.285-.842.499-1.18.214-.338.468-.605.748-.788.28-.182.58-.276.882-.276 1.27 0 2.299 1.625 2.299 3.635zm10.487 0c-.001.962-.243 1.884-.674 2.564-.431.68-1.016 1.063-1.626 1.063-1.273 0-2.303-1.625-2.303-3.627a5.5 5.5 0 0 1 .174-1.391 4.21 4.21 0 0 1 .5-1.18c.214-.337.468-.605.747-.788.28-.182.58-.276.882-.276 1.27 0 2.3 1.625 2.3 3.635z"/></defs></svg>