<svg width="100" height="52" viewBox="0 0 100 52" xmlns="http://www.w3.org/2000/svg" xmlns:xlink="http://www.w3.org/1999/xlink"><title>php-1</title><desc>Created using Figma</desc><use xlink:href="#a" fill="#8993BE"/><use xlink:href="#b" transform="translate(14.04 6.5)" fill="#232531"/><defs><path id="a" d="M50 52c27.614 0 50-11.64 50-26S77.614 0 50 0 0 11.64 0 26s22.386 26 50 26z"/><path id="b" fill-rule="evenodd" d="M0 34.895L5.48 7.184h12.67c5.48.342 8.22 3.079 8.22 7.869 0 8.21-6.507 13-12.33 12.657H7.878l-1.37 7.185H0zm9.246-12.316l1.713-10.263h4.452c2.397 0 4.11 1.026 4.11 3.078-.343 5.816-3.083 6.843-6.165 7.185h-4.11zm15.85 5.131L30.576 0h6.507l-1.37 7.184h6.164c5.48.342 7.534 3.079 6.85 6.5L46.329 27.71H39.48l2.397-12.658c.342-1.71.342-2.736-2.054-2.736h-5.138L31.603 27.71h-6.507zm20.795 7.185L51.37 7.184H64.04c5.48.342 8.22 3.079 8.22 7.869 0 8.21-6.507 13-12.33 12.657h-6.164l-1.37 7.185h-6.506zm9.246-12.316l1.712-10.263h4.453c2.397 0 4.109 1.026 4.109 3.078-.342 5.816-3.082 6.843-6.164 7.185h-4.11z"/></defs></svg>