<svg width="100" height="52" viewBox="0 0 100 52" xmlns="http://www.w3.org/2000/svg" xmlns:xlink="http://www.w3.org/1999/xlink"><title>sass-1</title><desc>Created using Figma</desc><use xlink:href="#a" fill="#CF649A"/><defs><path id="a" d="M86.085 29.86c-3.497.014-6.524.596-9.063 1.463-.938-1.287-1.876-2.412-2.032-3.252-.175-.975-.39-1.572-.175-2.737.214-1.165 1.19-2.819 1.19-2.954-.019-.122-.214-.718-2.226-.732-2.012-.013-3.75.271-3.946.637a12.141 12.141 0 0 0-.84 2.073c-.351 1.274-4.023 5.786-6.113 8.158-.684-.922-1.27-1.735-1.387-2.385-.176-.976-.391-1.572-.176-2.737.215-1.166 1.191-2.819 1.191-2.954-.019-.122-.214-.719-2.226-.732-2.012-.014-3.75.27-3.946.637-.195.366-.41 1.233-.84 2.073-.41.84-5.293 8.374-6.563 10.34a38.309 38.309 0 0 1-1.621 2.343c-.41.542-.02.041-.059.095l-.547.718v.014c-.273.339-.566.664-.703.664-.098 0-.293-.908.039-2.154.723-2.616 2.48-6.695 2.461-6.844 0-.067.332-.786-1.133-1.151-1.426-.366-1.933.244-2.05.244-.118 0-.215.216-.215.216s1.582-4.593-3.028-4.593c-2.891 0-6.876 2.181-8.849 4.174-1.25.474-3.906 1.476-6.719 2.547-1.074.407-2.188.84-3.242 1.233l-.215-.163c-5.587-4.133-15.92-7.06-15.49-12.615.157-2.02 1.172-7.345 19.846-13.795 15.294-5.285 27.541-3.835 29.67-.61 3.028 4.608-6.543 13.172-22.443 14.405-6.055.474-9.24-1.152-10.04-1.762-.84-.637-.957-.664-1.27-.542-.507.19-.195.759 0 1.098.47.853 2.423 2.371 5.743 3.13 2.91.664 10.02 1.03 18.615-1.274 9.63-2.588 17.15-9.77 14.943-15.773C60.38.252 45.769-1.754 31.959 1.648 23.736 3.68 14.83 6.85 8.422 11.01.804 15.944-.408 20.253.1 22.041c1.777 6.383 14.454 10.543 19.533 13.619-.254.094-.489.19-.704.27-2.539.868-12.208 4.377-14.63 8.09-2.734 4.2.43 7.223 2.54 7.63 6.524 1.26 13.204-1.004 16.817-4.73 3.594-3.726 3.165-8.564 1.505-10.773l-.06-.081 1.993-.813c1.29-.529 2.56-1.016 3.672-1.437-.625 1.18-1.074 2.575-1.308 4.608-.274 2.385 1.133 5.474 2.988 6.694.82.528 1.797.542 2.403.542 2.148 0 3.125-1.234 4.2-2.71 1.328-1.803 2.5-3.89 2.5-3.89s-1.465 5.651 2.539 5.651c1.465 0 2.93-1.314 3.594-1.992v.014s.04-.04.117-.136c.082-.084.16-.17.235-.257v-.027c.586-.705 1.894-2.317 3.848-4.987 2.52-3.442 4.941-7.75 4.941-7.75s.235 1.056.958 2.79c.43 1.03 1.367 2.155 2.09 3.253-.587.569-.938.894-.938.894l.02.014a44.95 44.95 0 0 1-1.544 1.355c-1.992 1.653-4.375 3.537-4.688 4.079-.37.636-.293 1.11.43 1.49.528.271 1.465.325 2.461.271 1.797-.081 3.047-.393 3.673-.583a15.34 15.34 0 0 0 3.164-1.151c1.953-1.003 3.145-2.426 3.028-4.323-.06-1.043-.547-2.073-1.153-3.049.176-.176.352-.352.528-.542 3.086-3.13 5.469-6.572 5.469-6.572s.234 1.057.957 2.792c.37.88 1.113 1.843 1.777 2.791-2.89 1.64-4.707 3.537-5.332 4.784-1.153 2.303-.254 3.347 1.445 3.59.762.109 1.856-.135 2.676-.379 1.016-.23 2.246-.623 3.38-1.206 1.953-1.003 3.828-2.398 3.73-4.282-.058-.867-.39-1.72-.84-2.534 2.462-.704 5.645-1.11 9.689-.772 8.692.704 10.41 4.471 10.079 6.043-.332 1.572-2.149 2.44-2.754 2.71-.606.258-.801.353-.743.542.078.285.352.271.88.217.722-.081 4.57-1.287 4.726-4.187.235-3.726-4.863-7.792-13.907-7.751zM19.048 45.538c-2.872 2.181-6.915 3.008-8.634 2.303-1.856-.745-1.133-3.956 2.403-6.273 2.148-1.41 4.942-2.71 6.778-3.51.41-.176 1.035-.434 1.777-.745.117-.054.195-.082.195-.082.137-.054.293-.122.45-.19 1.308 3.307.058 6.207-2.97 8.497zm20.998-9.906c-.997 1.694-3.106 6.044-4.376 5.8-1.094-.203-1.758-3.496-.215-6.748.782-1.64 2.442-3.591 3.418-4.35 1.583-1.22 3.302-1.626 3.731-1.125.508.65-1.933 5.366-2.558 6.423zm17.325 5.746c-.43.149-.82.257-.996.176-.137-.054.176-.257.176-.257s2.168-1.613 3.027-2.358c.489-.434 1.075-.935 1.7-1.504v.162c0 1.951-2.696 3.252-3.907 3.78zm13.36-2.114c-.312-.163-.273-.664.782-2.236.41-.623 1.348-1.667 2.969-2.656.195.407.313.8.293 1.166-.02 2.439-2.52 3.347-4.043 3.726z"/></defs></svg>