<svg width="41" height="40" viewBox="0 0 41 40" xmlns="http://www.w3.org/2000/svg"><g fill="none"><path d="M40 20c0 11.05-8.95 20-20 20S0 31.05 0 20 8.95 0 20 0s20 8.95 20 20z" transform="translate(.447)" fill="url(#a)"/><path d="M16.781 29.167c-.65 0-.533-.25-.767-.867l-1.9-6.267 11.8-7.366 1.384.366-1.15 3.134-9.367 11z" fill="#000"/><path d="M16.78 29.167c.5 0 .717-.234 1-.5.434-.417 6-5.834 6-5.834L20.364 22l-3.167 2-.417 5v.167z" fill="#000"/><path d="M8.512 12.039l8.067 5.95c.917.5 1.583.25 1.817-.85l3.283-15.467c.333-1.35-.517-1.95-1.4-1.55L1.012 7.555C-.304 8.09-.288 8.822.78 9.14l4.95 1.55 11.45-7.217c.533-.333 1.033-.15.633.217l-9.3 8.35z" transform="translate(8.602 12.028)" fill="url(#b)"/></g><defs><linearGradient id="a" x2="1" gradientUnits="userSpaceOnUse" gradientTransform="matrix(-10 23.333 23.333 10 14.195 1.322)"><stop stop-color="#37AEE2"/><stop offset="1" stop-color="#1E96C8"/></linearGradient><linearGradient id="b" x2="1" gradientUnits="userSpaceOnUse" gradientTransform="scale(7.86166 -7.86166) rotate(-57.995 -.589 -1.828)"><stop stop-color="#EFF7FC"/><stop offset="1" stop-color="#fff"/></linearGradient></defs></svg>