<svg width="41" height="40" viewBox="0 0 41 40" xmlns="http://www.w3.org/2000/svg"><g fill="none"><path d="M35.775 0h-30a5 5 0 0 0-5 5v30a5 5 0 0 0 5 5h30a5 5 0 0 0 5-5V5a5 5 0 0 0-5-5z" fill="#7B519D"/><path fill-rule="evenodd" clip-rule="evenodd" d="M33.736 26.989c-.953-.767-1.971-1.456-2.974-2.16-1.999-1.404-3.827-1.513-5.32.746-.837 1.269-2.01 1.324-3.236.768-3.38-1.533-5.99-3.895-7.52-7.33-.676-1.52-.667-2.884.915-3.959.838-.569 1.682-1.241 1.615-2.484-.088-1.62-4.022-7.034-5.575-7.605-.643-.236-1.283-.221-1.937-.001-3.642 1.225-5.15 4.22-3.706 7.767 4.31 10.581 11.896 17.947 22.337 22.444.595.256 1.257.358 1.591.45 2.378.024 5.162-2.267 5.967-4.54.774-2.186-.862-3.054-2.157-4.096zM22.03 6.049c7.633 1.175 11.154 4.804 12.126 12.493.09.71-.175 1.778.838 1.798 1.06.02.804-1.032.813-1.743.09-7.241-6.224-13.954-13.557-14.201-.553.08-1.697-.382-1.769.858-.047.836.916.699 1.549.796z" fill="#fff"/><path fill-rule="evenodd" clip-rule="evenodd" d="M23.522 8.158c-.734-.088-1.703-.434-1.875.584-.179 1.07.901.961 1.595 1.116 4.715 1.054 6.357 2.77 7.133 7.447.113.681-.112 1.743 1.047 1.567.858-.131.548-1.04.62-1.572.038-4.49-3.81-8.576-8.52-9.142z" fill="#fff"/><path fill-rule="evenodd" clip-rule="evenodd" d="M23.955 11.83c-.49.011-.97.064-1.15.588-.271.783.298.97.877 1.063 1.934.31 2.952 1.45 3.145 3.38.052.523.385.947.89.887.7-.084.764-.707.743-1.3.034-2.166-2.415-4.67-4.505-4.619z" fill="#fff"/></g></svg>