<svg width="41" height="40" viewBox="0 0 41 40" xmlns="http://www.w3.org/2000/svg"><g fill="none"><path d="M34.274 5.813C30.514 2.067 25.514.003 20.186 0 9.208 0 .274 8.891.269 19.82a19.716 19.716 0 0 0 2.659 9.91L.102 40l10.558-2.756a19.972 19.972 0 0 0 9.517 2.413h.009c10.976 0 19.911-8.893 19.916-19.821.002-5.297-2.068-10.277-5.828-14.023zM20.186 36.309h-.007a16.59 16.59 0 0 1-8.425-2.297l-.605-.356-6.265 1.635 1.673-6.08-.394-.622a16.377 16.377 0 0 1-2.531-8.768c.003-9.083 7.43-16.473 16.56-16.473a16.483 16.483 0 0 1 11.703 4.831 16.337 16.337 0 0 1 4.844 11.655c-.004 9.084-7.43 16.475-16.553 16.475z" fill="#E0E0E0"/><path d="M0 38.172l2.696-9.802A18.814 18.814 0 0 1 .16 18.914C.164 8.484 8.69 0 19.165 0c5.085.002 9.857 1.972 13.444 5.547 3.59 3.576 5.564 8.328 5.562 13.382-.004 10.43-8.53 18.915-19.005 18.915h-.009a19.067 19.067 0 0 1-9.082-2.302L0 38.172z" transform="translate(1.017 .688)" fill="url(#a)"/><path fill-rule="evenodd" clip-rule="evenodd" d="M15.264 11.405c-.368-.815-.756-.832-1.107-.846-.287-.012-.615-.011-.943-.011-.328 0-.86.122-1.311.612-.451.49-1.722 1.675-1.722 4.085s1.763 4.738 2.008 5.065c.246.326 3.404 5.429 8.404 7.392 4.155 1.63 5 1.306 5.903 1.225.902-.082 2.91-1.185 3.32-2.328.41-1.144.41-2.124.287-2.329-.123-.204-.45-.326-.943-.571-.492-.245-2.91-1.43-3.361-1.593-.451-.163-.78-.245-1.107.245-.328.49-1.27 1.593-1.558 1.92-.287.327-.574.368-1.065.123-.492-.246-2.077-.763-3.956-2.43-1.463-1.299-2.45-2.902-2.737-3.392-.287-.49-.03-.755.216-1 .22-.219.492-.571.738-.857.245-.286.327-.49.491-.817.164-.327.082-.613-.04-.858-.124-.244-1.08-2.666-1.517-3.635z" fill="#fff"/><path d="M34.111 5.75C30.394 2.047 25.451.006 20.185.004 9.333.004.5 8.794.497 19.596a19.49 19.49 0 0 0 2.628 9.796L.332 39.545l10.436-2.725a19.744 19.744 0 0 0 9.408 2.386h.009c10.85 0 19.683-8.791 19.687-19.594.002-5.235-2.044-10.158-5.76-13.862zM20.185 35.896h-.007a16.4 16.4 0 0 1-8.328-2.27l-.598-.353-6.194 1.617 1.654-6.01-.39-.616a16.189 16.189 0 0 1-2.501-8.666c.003-8.98 7.344-16.285 16.37-16.285A16.294 16.294 0 0 1 31.76 8.09a16.15 16.15 0 0 1 4.788 11.522c-.004 8.98-7.344 16.285-16.363 16.285z" fill="#fff"/></g><defs><linearGradient id="a" x2="1" gradientUnits="userSpaceOnUse" gradientTransform="matrix(0 -38.1719 38.3431 0 -.086 38.172)"><stop stop-color="#20B038"/><stop offset="1" stop-color="#60D66A"/></linearGradient></defs></svg>