<svg width="100" height="100" viewBox="0 0 100 100" xmlns="http://www.w3.org/2000/svg" xmlns:xlink="http://www.w3.org/1999/xlink"><title>wordpress-icon-1</title><desc>Created using Figma</desc><use xlink:href="#a" fill="#21759B"/><defs><path id="a" d="M50 100C22.293 100-.207 77.916.002 50c.21-27.916 21.25-50 50-50C78.752 0 100 22.5 100 50s-22.29 50-50 50zm14.791-7.709L50.627 54.166 37.292 93.125c9.793 2.293 16.459 2.916 27.5-.834zM30.21 90.209L8.96 32.084C6.042 38.334 5.42 43.543 5.001 50c.21 17.082 9.791 32.707 25.209 40.209zM94.793 50c.207-11.041-4.79-19.791-5.209-21.041.418 8.543-.834 12.916-2.29 17.709L72.708 88.543C91.043 77.5 94.582 61.041 95 50h-.207zm-46.25-1.875L41.46 28.75l-5.21-.416c-2.081-1.459-.833-3.75.626-3.75 9.375.625 14.582.625 23.959 0 2.292 0 2.916 3.334.207 3.75l-5 .416L72.29 76.666l7.706-26.25c.418-11.457-2.709-12.707-6.874-21.041-3.335-6.459.209-12.709 6.667-12.916-5.21-5-15.833-11.25-29.792-11.459-13.959-.209-28.75 6.875-37.5 20.209l15.418-.416c1.875.834 1.041 3.541 0 3.75l-5.416.416 16.25 48.75 9.795-29.584z"/></defs></svg>