<svg width="70" height="70" viewBox="0 0 70 70" fill="none" xmlns="http://www.w3.org/2000/svg"><path d="M0 10.834h16.365v5.833H0v-5.834zM0 0h16.365v5.833H0V0zm29.362 21.583H0v5.834h28.261c3.095 0 10.314.083 12.996 5.333V29.5c-1.306-5.167-5.157-7.917-11.896-7.917zm.068 10.834H0v5.833h28.261c6.877 0 11.209.333 12.996 1.5v-2.583c-1.375-4.084-7.15-4.75-11.827-4.75zm-.068 27.5H0v-5.834h28.261c3.095 0 10.314-.083 12.996-5.333V52c-1.306 5.167-5.157 7.916-11.896 7.916zm.068-10.834H0V43.25h28.261c6.877 0 11.209-.333 12.996-1.5v2.583c-1.375 4.084-7.15 4.75-11.827 4.75zM48.41 70H70v-3.584H49.027c-1.856 0-6.257-.083-7.838-3.166v2c.756 3.083 3.094 4.75 7.22 4.75zm-.07-6.584h21.592v-3.583H49.027c-4.194 0-6.807-.166-7.839-.916V60.5c.825 2.5 4.332 2.916 7.152 2.916z" fill="#010101"/></svg>