<svg width="70" height="110" viewBox="0 0 70 110" fill="none" xmlns="http://www.w3.org/2000/svg"><path fill-rule="evenodd" clip-rule="evenodd" d="M34.676 86.8c-9.076 0-16.089-.968-19.461-1.545-2.307-.394-4.159-.802-5.565-1.222l4.498 5.457 1.759 17.05c0 1.91 8.551 3.46 19.1 3.46 10.547 0 19.099-1.55 19.099-3.46l1.393-17.236 4.255-5.287c-1.412.425-3.28.839-5.616 1.238-3.372.577-10.386 1.546-19.462 1.546zM59.9 31.322c-6.66.66-15.502 1.025-24.894 1.025-9.392 0-18.233-.364-24.894-1.025-3.3-.327-5.91-.713-7.76-1.146-.44-.104-1.188-.28-1.907-.562l4.127 26.971c.192-.464.405-.928.642-1.39a23.197 23.197 0 0 1 1.681-2.779c.636-.904 1.33-1.759 2.078-2.564a22.393 22.393 0 0 1 2.391-2.224 18.027 18.027 0 0 1 2.602-1.748c.89-.488 1.788-.87 2.695-1.144a9.265 9.265 0 0 1 2.695-.412c1.025 0 2.016.199 2.974.597.957.398 1.852 1.042 2.686 1.932.192.2.313.4.363.604.051.204.076.396.076.576 0 .426-.143.763-.43 1.009-.287.246-.628.37-1.022.37-.362 0-.697-.136-1.006-.406-.31-.27-.656-.656-1.04-1.158-.36-.455-.757-.784-1.19-.987a3.279 3.279 0 0 0-1.411-.306c-.789 0-1.63.232-2.526.696-.896.464-1.783 1.078-2.66 1.84a21.6 21.6 0 0 0-2.527 2.615 25.452 25.452 0 0 0-2.138 3.012 17.743 17.743 0 0 0-1.478 3.042c-.366.999-.549 1.897-.549 2.692 0 .266.026.538.076.817.051.28.146.533.287.76.14.228.333.415.575.562.242.147.549.22.92.22.417 0 .89-.1 1.42-.298.53-.199 1.078-.46 1.647-.781.569-.323 1.14-.687 1.715-1.095.575-.407 1.11-.82 1.605-1.236.495-.417.935-.817 1.318-1.2.383-.384.67-.718.862-1.003l1.571-3.34c.191-.359.442-.615.752-.766.31-.152.628-.228.955-.228.157 0 .315.02.473.057.158.038.298.097.422.178.124.08.223.184.296.312.073.128.11.277.11.448 0 .455-.057.88-.17 1.279a7.922 7.922 0 0 1-.43 1.165c-.175.379-.37.76-.583 1.144a23.69 23.69 0 0 0-.625 1.2c-.045.048-.127.197-.245.448a57.915 57.915 0 0 0-.98 2.217c-.198.47-.4.947-.608 1.435-.209.488-.409.967-.6 1.436a175.693 175.693 0 0 0-.896 2.223c-.101.256-.163.408-.186.455-.056.152-.146.32-.27.504-.124.185-.27.36-.44.526a2.431 2.431 0 0 1-.557.412c-.203.109-.41.164-.625.164-.36 0-.623-.085-.785-.256-.164-.17-.245-.483-.245-.937v-.2c0-.066.005-.137.016-.212.011-.152.096-.437.254-.854.158-.416.346-.887.566-1.413.22-.526.456-1.07.71-1.635.253-.563.48-1.067.684-1.513-.598.474-1.245.945-1.943 1.414-.699.469-1.414.89-2.146 1.265-.733.374-1.47.68-2.213.916a7.068 7.068 0 0 1-2.146.356c-.789 0-1.467-.123-2.037-.37-.102-.045-.2-.095-.296-.144L7.983 81.98c.598 1.064 11.853 3.679 26.693 3.679 14.848 0 26.107-2.617 26.695-3.68L64.67 61.65c-.273.178-.539.352-.793.52a34.386 34.386 0 0 1-2.679 1.613c-.838.45-1.658.798-2.458 1.044-.8.247-1.656.37-2.568.37-.856 0-1.518-.133-1.986-.398-.467-.265-.7-.63-.7-1.094v-.107c0-.033.005-.074.016-.121.045-.284.22-.611.524-.98.304-.37.67-.753 1.098-1.151.428-.398.884-.801 1.369-1.208.484-.407.932-.793 1.343-1.159.411-.364.752-.698 1.022-1.001.27-.303.406-.55.406-.739 0-.114-.057-.204-.169-.27-.113-.066-.299-.1-.557-.1-.451 0-.916.083-1.394.249-.48.166-.953.389-1.42.668-.467.28-.924.6-1.369.96a15.836 15.836 0 0 0-2.314 2.295c-.321.392-.594.755-.82 1.086a65.36 65.36 0 0 1-.287.44c-.124.19-.26.404-.406.64-.146.237-.301.481-.464.732-.164.251-.313.488-.448.71l-.363.597a11.97 11.97 0 0 1-.228.363c-.057.085-.15.246-.279.483-.13.236-.279.514-.448.83l-.532 1.003a224.828 224.828 0 0 0-.954 1.819 6.378 6.378 0 0 0-.238.483 4.467 4.467 0 0 1-.396.697c-.152.217-.326.409-.524.575a2.31 2.31 0 0 1-1.529.547c-.406 0-.74-.07-1.005-.206-.265-.138-.397-.4-.397-.789 0-.19.033-.384.101-.582.068-.2.152-.396.254-.59.101-.195.205-.384.313-.568.106-.185.205-.363.295-.533.608-.948 1.228-1.897 1.858-2.85.63-.952 1.236-1.894 1.817-2.827.12-.195.232-.386.35-.58l-.105.075a22.22 22.22 0 0 1-2.188 1.329c-.727.383-1.448.689-2.163.916a6.89 6.89 0 0 1-2.087.341c-.462 0-.847-.052-1.157-.156a1.95 1.95 0 0 1-.743-.426 1.52 1.52 0 0 1-.398-.64c-.026-.084-.043-.172-.06-.26-.198.11-.398.216-.599.317-.698.35-1.385.633-2.06.846-.676.213-1.285.32-1.825.32-.541 0-.98-.129-1.319-.384-.338-.256-.506-.692-.506-1.307 0-.437.09-.943.27-1.521-.293.37-.659.744-1.098 1.122a8.716 8.716 0 0 1-3.396 1.798 8.498 8.498 0 0 1-2.281.291c-.372 0-.73-.033-1.073-.1a2.645 2.645 0 0 1-.904-.34 1.84 1.84 0 0 1-.625-.647c-.158-.27-.237-.609-.237-1.016 0-.01.023-.154.068-.433.045-.28.188-.72.43-1.322.243-.601.618-1.38 1.124-2.337.507-.957 1.223-2.118 2.146-3.481.236-.36.51-.619.82-.775a2.2 2.2 0 0 1 1.004-.235c.158 0 .322.017.49.05.17.033.327.085.474.156.146.072.265.162.355.27.09.11.135.235.135.377a.722.722 0 0 1-.05.27c-.058.161-.179.372-.364.632-.186.26-.403.56-.65.896-.248.336-.51.698-.786 1.087-.276.388-.533.79-.769 1.208-.236.417-.44.84-.608 1.271-.17.432-.265.85-.287 1.258 0 .17.056.327.169.469.112.142.298.213.557.213.732 0 1.43-.17 2.095-.511a8.67 8.67 0 0 0 1.842-1.272 12.87 12.87 0 0 0 1.529-1.635c.456-.582.836-1.115 1.14-1.598.215-.322.403-.668.566-1.037.163-.37.341-.71.533-1.024.191-.313.41-.573.659-.781.247-.208.557-.313.928-.313.406 0 .727.109.964.327.236.218.354.478.354.781 0 .17-.075.406-.228.704-.152.298-.343.64-.574 1.023-.231.384-.482.794-.752 1.229-.27.436-.521.879-.751 1.329-.232.45-.423.89-.575 1.322-.153.43-.228.83-.228 1.2 0 .341.248.512.743.512.35 0 .783-.085 1.301-.256.518-.17 1.062-.41 1.63-.718.142-.077.285-.157.427-.241a7.94 7.94 0 0 1 .562-1.286c.394-.74.794-1.473 1.2-2.203l1.115-2.003 5.12-9.166c.202-.37.475-.63.818-.782a2.56 2.56 0 0 1 1.04-.227c.349 0 .667.08.954.242.288.16.432.421.432.781 0 .17-.049.35-.144.54-.096.19-.217.393-.364.611-.28.446-.616.99-1.005 1.634a214.305 214.305 0 0 0-2.62 4.47c-.466.82-.923 1.617-1.368 2.394a247.953 247.953 0 0 0-2.255 4.021 6.557 6.557 0 0 0-.363.76 2.068 2.068 0 0 0-.177.775c0 .142.033.256.101.341.068.085.197.128.389.128.236 0 .531-.059.886-.178.355-.118.738-.275 1.15-.469.41-.194.839-.416 1.283-.667a39.99 39.99 0 0 0 2.585-1.592c.4-.27.758-.519 1.074-.746a.83.83 0 0 1 .26-.122c.19-.403.363-.799.517-1.185.09-.17.214-.412.371-.725.158-.313.338-.62.54-.924a4.03 4.03 0 0 1 .685-.788c.253-.223.527-.334.82-.334.45 0 .777.073.98.22.202.147.304.362.304.647 0 .056-.012.146-.034.27a6.888 6.888 0 0 1-.194.781 1.43 1.43 0 0 1-.11.27c.416-.322.867-.642 1.351-.959.485-.317.986-.604 1.504-.86a10.156 10.156 0 0 1 1.589-.625 5.673 5.673 0 0 1 1.621-.242c.372 0 .741.038 1.107.114.366.076.693.187.98.334.287.147.521.332.701.554.18.223.27.48.27.775 0 .388-.137.803-.413 1.243-.276.44-.623.884-1.04 1.328a18.44 18.44 0 0 1-1.35 1.3c-.485.422-.938.806-1.361 1.152-.423.346-.778.64-1.065.88-.286.243-.437.406-.447.491 0 .114.05.206.152.278.101.07.27.106.507.106.19 0 .473-.076.844-.227.372-.152.893-.415 1.563-.789.67-.374 1.521-.876 2.552-1.507a237.56 237.56 0 0 0 2.466-1.531l4.469-29.386c-.72.282-1.469.46-1.91.563-1.849.433-4.46.82-7.76 1.146zM34.98 24.35C15.66 24.35 0 25.883 0 27.775c0 1.892 15.661 3.426 34.98 3.426 19.318 0 34.98-1.534 34.98-3.426 0-1.892-15.662-3.426-34.98-3.426zm13.967 4.427c0 .444-1.861.804-4.158.804-2.296 0-4.157-.36-4.157-.804 0-.444 1.861-.804 4.157-.804 2.297 0 4.158.36 4.158.804z" fill="#DA4648"/><path fill-rule="evenodd" clip-rule="evenodd" d="M41.475 28.42a.108.108 0 0 0-.032.072c0 .288 1.499.52 3.347.52 1.848 0 3.346-.232 3.346-.52l4.371-12.584L69.89 2.878a.305.305 0 0 0 .016-.013c.368-.296-.379-1.21-1.618-1.994C67.05.086 65.713-.18 65.296.119a.387.387 0 0 0-.009.007L46.741 13.983l-5.266 14.438z" fill="#DA4648"/></svg>