<svg width="70" height="70" viewBox="0 0 70 70" fill="none" xmlns="http://www.w3.org/2000/svg"><path d="M60.26 40.196c-2.448.018-4.567.803-6.345 1.97-.656-1.733-1.313-3.247-1.422-4.378-.123-1.313-.273-2.116-.123-3.684.15-1.57.834-3.795.834-3.977-.014-.164-.15-.967-1.559-.985-1.408-.018-2.625.365-2.762.857-.136.493-.41 1.624-.588 2.791-.246 1.715-2.816 7.789-4.28 10.981-.478-1.24-.888-2.335-.97-3.21-.123-1.314-.274-2.116-.123-3.685.15-1.569.834-3.794.834-3.976-.014-.165-.15-.967-1.559-.985-1.408-.019-2.625.364-2.762.857-.136.492-.287 1.66-.588 2.79-.287 1.132-3.705 11.274-4.594 13.919a66.033 66.033 0 0 1-1.135 3.155c-.287.73-.013.055-.04.128l-.384.967v.018c-.191.456-.396.894-.492.894-.068 0-.205-1.222.027-2.9.506-3.52 1.737-9.011 1.723-9.212 0-.091.233-1.058-.793-1.55-.998-.493-1.353.328-1.435.328-.082 0-.15.292-.15.292s1.107-6.184-2.12-6.184c-2.024 0-4.813 2.937-6.194 5.618-.875.639-2.735 1.989-4.704 3.43-.752.547-1.531 1.13-2.27 1.66l-.15-.22c-3.91-5.563-11.143-9.503-10.842-16.982.109-2.718.82-9.887 13.892-18.57 10.706-7.113 19.279-5.162 20.769-.82 2.12 6.202-4.58 17.73-15.71 19.39-4.239.638-6.468-1.55-7.028-2.371-.588-.858-.67-.894-.89-.73-.355.255-.136 1.021 0 1.477.33 1.15 1.696 3.193 4.02 4.214 2.038.894 7.015 1.387 13.031-1.715 6.741-3.483 12.005-13.151 10.46-21.232-1.572-8.227-11.8-10.927-21.467-6.348C16.615 4.954 10.38 9.223 5.895 14.823.563 21.463-.285 27.263.071 29.67c1.244 8.591 10.118 14.191 13.673 18.332-.178.128-.342.255-.493.365-1.777 1.167-8.545 5.892-10.24 10.89-1.915 5.654.3 9.722 1.777 10.27 4.567 1.696 9.243-1.35 11.772-6.367 2.516-5.016 2.215-11.528 1.053-14.501l-.041-.11 1.395-1.094a81.215 81.215 0 0 1 2.57-1.934c-.437 1.587-.752 3.466-.916 6.202-.191 3.21.793 7.37 2.092 9.011.574.712 1.258.73 1.682.73 1.504 0 2.188-1.66 2.94-3.648.93-2.426 1.75-5.236 1.75-5.236s-1.026 7.607 1.777 7.607c1.026 0 2.051-1.77 2.516-2.681v.018s.027-.055.082-.183c.057-.113.112-.228.164-.346v-.037c.41-.948 1.326-3.119 2.694-6.712 1.764-4.633 3.46-10.434 3.46-10.434s.163 1.423.67 3.758c.3 1.386.956 2.9 1.462 4.377-.41.767-.656 1.205-.656 1.205l.013.018a52.403 52.403 0 0 1-1.08 1.824c-1.394 2.225-3.063 4.761-3.281 5.49-.26.858-.205 1.496.3 2.007.37.365 1.026.438 1.723.365 1.258-.11 2.133-.529 2.57-.785a8.414 8.414 0 0 0 2.216-1.55c1.367-1.35 2.201-3.265 2.12-5.819-.042-1.404-.384-2.79-.807-4.104.123-.237.246-.474.369-.73 2.16-4.214 3.828-8.847 3.828-8.847s.164 1.423.67 3.758c.26 1.186.78 2.481 1.244 3.758-2.023 2.207-3.295 4.76-3.732 6.439-.807 3.101-.178 4.506 1.012 4.834.533.146 1.298-.182 1.873-.51a7.97 7.97 0 0 0 2.365-1.624c1.367-1.35 2.68-3.229 2.612-5.764-.041-1.168-.274-2.317-.588-3.412 1.723-.948 3.951-1.495 6.782-1.04 6.084.95 7.287 6.02 7.055 8.136a5.554 5.554 0 0 1-1.928 3.648c-.424.347-.56.475-.52.73.055.383.247.365.616.292.506-.11 3.2-1.733 3.309-5.636.164-5.017-3.405-10.49-9.736-10.435zM13.332 61.301c-2.01 2.937-4.84 4.05-6.043 3.1-1.3-1.002-.793-5.325 1.682-8.445 1.504-1.897 3.459-3.648 4.744-4.724.287-.237.725-.584 1.245-1.003.082-.073.136-.11.136-.11.096-.073.205-.164.315-.255.916 4.45.04 8.354-2.079 11.437zm14.699-13.334c-.697 2.28-2.174 8.135-3.063 7.807-.766-.274-1.23-4.706-.15-9.084.547-2.208 1.709-4.834 2.392-5.856 1.108-1.642 2.311-2.189 2.612-1.514.356.876-1.354 7.224-1.791 8.647zM40.16 55.7c-.3.2-.574.346-.697.237-.096-.073.123-.346.123-.346s1.517-2.171 2.119-3.174c.342-.584.752-1.259 1.19-2.025v.219c0 2.626-1.887 4.377-2.735 5.089zm9.352-2.846c-.219-.219-.191-.893.547-3.01.287-.839.944-2.243 2.078-3.575.137.547.22 1.076.206 1.569-.014 3.283-1.764 4.505-2.83 5.016z" fill="#CF649A"/></svg>