<svg width="70" height="70" viewBox="0 0 70 70" fill="none" xmlns="http://www.w3.org/2000/svg">
<path d="M0 10.8335H16.3652V16.6667H0V10.8335ZM0 0H16.3652V5.83328H0V0ZM29.3617 21.5834H0V27.4167H28.2614C31.3556 27.4167 38.5755 27.4999 41.2573 32.7499V29.5001C39.9509 24.3332 36.1003 21.5834 29.3614 21.5834H29.3617ZM29.4301 32.4166H0V38.2498H28.2614C35.1375 38.2498 39.4696 38.5832 41.2573 39.75V37.1666C39.882 33.0833 34.1061 32.4166 29.4304 32.4166H29.4301ZM29.3617 59.9164H0V54.0832H28.2614C31.3556 54.0832 38.5755 54 41.2573 48.7499V51.9998C39.9509 57.1667 36.1003 59.9164 29.3614 59.9164H29.3617ZM29.4301 49.0833H0V43.25H28.2614C35.1375 43.25 39.4696 42.9167 41.2573 41.7499V44.3333C39.882 48.4166 34.1061 49.0833 29.4304 49.0833H29.4301ZM48.4086 70H70V66.4165H49.0273C47.1707 66.4165 42.7703 66.3333 41.1887 63.2498V65.25C41.945 68.3332 44.2829 70 48.4086 70ZM48.3399 63.4165H69.9314V59.8333H49.0273C44.8328 59.8333 42.2198 59.6666 41.1884 58.9167V60.5C42.0134 62.9999 45.5202 63.4165 48.3396 63.4165H48.3399Z" fill="#010101"/>
</svg>
