<svg width="70" height="110" viewBox="0 0 70 110" fill="none" xmlns="http://www.w3.org/2000/svg">
<path fill-rule="evenodd" clip-rule="evenodd" d="M34.6765 62.4513C25.6003 62.4513 18.5871 61.4832 15.2146 60.9062C12.9083 60.5117 11.0564 60.1034 9.64957 59.684L14.1475 65.1406L15.9069 82.19C15.9069 84.1014 24.458 85.6508 35.0062 85.6508C45.5544 85.6508 54.1055 84.1014 54.1055 82.19L55.4987 64.9551L59.7545 59.668C58.3417 60.0931 56.4733 60.5068 54.1381 60.9062C50.7656 61.4832 43.7523 62.4513 34.6765 62.4513ZM59.9005 6.97203C53.2391 7.63266 44.3981 7.99666 35.0062 7.99666C25.6144 7.99666 16.7734 7.63266 10.1119 6.97203C6.81219 6.64485 4.20158 6.25886 2.35248 5.82548C1.91142 5.72185 1.16398 5.54513 0.444684 5.26363L4.57188 32.235C4.76367 31.7705 4.97717 31.3066 5.21398 30.8444C5.69847 29.8971 6.25895 28.971 6.89502 28.0662C7.53149 27.1618 8.22424 26.3068 8.97329 25.5014C9.72194 24.6963 10.5192 23.9549 11.364 23.2774C12.2091 22.6002 13.076 22.0178 13.9661 21.5296C14.8559 21.042 15.7541 20.6606 16.6608 20.3859C17.5678 20.1113 18.4661 19.9737 19.3558 19.9737C20.3807 19.9737 21.3722 20.1726 22.3299 20.5706C23.2872 20.9683 24.1822 21.6127 25.0161 22.5031C25.2075 22.7021 25.3289 22.9034 25.3792 23.1069C25.4302 23.3108 25.4552 23.5026 25.4552 23.6825C25.4552 24.1087 25.3116 24.4453 25.0245 24.6914C24.7375 24.9378 24.3965 25.0609 24.0025 25.0609C23.6414 25.0609 23.3065 24.9258 22.9969 24.656C22.6869 24.386 22.3408 24 21.9576 23.4978C21.5969 23.043 21.2001 22.7141 20.7667 22.5103C20.3328 22.3067 19.8628 22.2048 19.3558 22.2048C18.5674 22.2048 17.7254 22.4369 16.83 22.9011C15.9342 23.365 15.0473 23.9786 14.1692 24.7411C13.2903 25.5039 12.4483 26.3753 11.643 27.3559C10.8377 28.3363 10.1248 29.3404 9.50522 30.3682C8.88564 31.3965 8.39351 32.4103 8.02723 33.4095C7.66095 34.4088 7.47801 35.3063 7.47801 36.102C7.47801 36.3675 7.50374 36.6402 7.554 36.9191C7.60506 37.1989 7.70035 37.4521 7.84148 37.6796C7.9818 37.9072 8.17358 38.0939 8.41563 38.2404C8.65807 38.3877 8.96485 38.4608 9.33636 38.4608C9.7533 38.4608 10.2261 38.3614 10.756 38.1624C11.2852 37.964 11.8344 37.7031 12.4029 37.3813C12.9718 37.059 13.5436 36.6944 14.1181 36.2867C14.6931 35.8796 15.2278 35.4676 15.7232 35.0505C16.2185 34.634 16.658 34.2335 17.0407 33.85C17.4239 33.4663 17.711 33.1323 17.9028 32.848L19.474 29.5086C19.6654 29.1488 19.9159 28.893 20.2259 28.7414C20.5355 28.5898 20.8539 28.5139 21.1808 28.5139C21.338 28.5139 21.4956 28.533 21.6536 28.5707C21.8116 28.6087 21.952 28.6681 22.0762 28.7483C22.2 28.8291 22.2985 28.933 22.3717 29.0612C22.4449 29.1888 22.4815 29.3381 22.4815 29.5086C22.4815 29.9633 22.4252 30.3893 22.3126 30.7876C22.2 31.1858 22.0565 31.5738 21.8816 31.9529C21.7071 32.3315 21.5125 32.7129 21.2986 33.0966C21.0847 33.4803 20.876 33.8806 20.6738 34.2977C20.6288 34.3451 20.5471 34.4938 20.4285 34.7448C20.3103 34.9963 20.1672 35.3115 19.9979 35.69C19.8291 36.0692 19.6457 36.4929 19.4487 36.9619C19.2513 37.431 19.049 37.9092 18.8408 38.3971C18.6321 38.885 18.4323 39.3635 18.2409 39.8325C18.0491 40.3013 17.877 40.7253 17.7254 41.1044C17.5735 41.483 17.4468 41.8002 17.3451 42.0563C17.2438 42.3121 17.1819 42.4634 17.1593 42.5113C17.1031 42.6624 17.0126 42.8308 16.8892 43.0152C16.7653 43.1999 16.619 43.3755 16.4497 43.5411C16.2808 43.7067 16.0951 43.8446 15.892 43.9531C15.6894 44.0618 15.4811 44.1167 15.2668 44.1167C14.9066 44.1167 14.6444 44.0313 14.4816 43.8611C14.3179 43.6904 14.2367 43.3778 14.2367 42.9233V42.7243C14.2367 42.6578 14.242 42.5864 14.2532 42.5113C14.2641 42.3595 14.3489 42.0751 14.5069 41.658C14.6645 41.2415 14.8531 40.7704 15.073 40.2445C15.2926 39.7186 15.5294 39.1739 15.7827 38.6101C16.0356 38.0465 16.2639 37.5423 16.467 37.097C15.8691 37.5709 15.2222 38.0419 14.5238 38.511C13.825 38.9798 13.1097 39.4015 12.378 39.7755C11.6454 40.1497 10.9076 40.4552 10.1646 40.6922C9.42119 40.9288 8.70592 41.0476 8.01879 41.0476C7.23034 41.0476 6.55165 40.9243 5.98233 40.6779C5.8798 40.6331 5.7829 40.5831 5.68641 40.5334L7.98301 57.631C8.58088 58.6951 19.8363 61.3093 34.6765 61.3093C49.5236 61.3093 60.7834 58.6925 61.3708 57.6293L64.6698 37.3017C64.3968 37.4795 64.131 37.6534 63.8769 37.8218C62.9304 38.4468 62.0375 38.9844 61.1984 39.4343C60.3596 39.8842 59.5398 40.2328 58.7401 40.4786C57.94 40.7253 57.084 40.8483 56.1717 40.8483C55.3157 40.8483 54.6535 40.7156 54.1863 40.4504C53.7191 40.1854 53.4851 39.8208 53.4851 39.3563V39.2499C53.4851 39.2167 53.4908 39.1762 53.5024 39.1288C53.547 38.845 53.7223 38.5176 54.0263 38.1484C54.3303 37.7787 54.6962 37.3953 55.124 36.9976C55.5522 36.5996 56.0081 36.1968 56.4926 35.7894C56.9771 35.3823 57.425 34.9963 57.8363 34.6312C58.2472 34.2672 58.5877 33.9331 58.8579 33.6296C59.1289 33.3265 59.264 33.0804 59.264 32.8908C59.264 32.7772 59.2073 32.6872 59.0951 32.6204C58.9822 32.5548 58.796 32.5211 58.5375 32.5211C58.0868 32.5211 57.622 32.6042 57.1439 32.7697C56.6647 32.9353 56.191 33.1586 55.7238 33.4378C55.2566 33.7173 54.8003 34.0373 54.3552 34.3971C53.9109 34.7571 53.494 35.1313 53.1052 35.5193C52.7164 35.9082 52.3622 36.299 52.0409 36.6921C51.7197 37.0852 51.4467 37.4475 51.2211 37.7787C51.1536 37.8832 51.0579 38.0302 50.9336 38.2192C50.8098 38.4088 50.6747 38.6223 50.5283 38.859C50.3816 39.096 50.2268 39.3401 50.0636 39.5905C49.9003 39.842 49.7512 40.0789 49.6161 40.3013C49.481 40.524 49.3599 40.7224 49.2534 40.898C49.1456 41.073 49.0697 41.1941 49.0246 41.2606C48.9683 41.3457 48.8755 41.5064 48.746 41.7434C48.6165 41.9803 48.467 42.2575 48.2985 42.5747C48.1296 42.8919 47.9519 43.2259 47.7658 43.5768C47.5808 43.9268 47.4055 44.2588 47.2423 44.5714C47.0786 44.8838 46.9351 45.1587 46.8117 45.3957C46.6878 45.6321 46.6082 45.7934 46.5744 45.8787C46.4623 46.1251 46.3296 46.3566 46.178 46.5753C46.0256 46.7929 45.8515 46.9847 45.6541 47.1509C45.4571 47.3165 45.2319 47.4489 44.9782 47.5483C44.7245 47.6482 44.4403 47.6976 44.1255 47.6976C43.7194 47.6976 43.3849 47.6285 43.1195 47.4915C42.8553 47.3542 42.7227 47.0909 42.7227 46.7029C42.7227 46.5134 42.7564 46.3192 42.824 46.1205C42.8915 45.9215 42.9764 45.7246 43.0777 45.5307C43.179 45.336 43.2835 45.147 43.3905 44.9623C43.497 44.7773 43.5959 44.6 43.6856 44.4293C44.2943 43.482 44.9139 42.5325 45.5443 41.5801C46.1748 40.6282 46.7803 39.6858 47.3609 38.7525C47.4815 38.5578 47.5925 38.3671 47.7103 38.1736C47.6749 38.1981 47.6403 38.2238 47.6057 38.2478C46.8732 38.7502 46.1442 39.1928 45.4177 39.5765C44.6908 39.9602 43.9699 40.2656 43.2554 40.4932C42.5397 40.7201 41.8441 40.8341 41.1679 40.8341C40.7063 40.8341 40.3207 40.7821 40.0111 40.6779C39.7011 40.5734 39.4539 40.4312 39.2677 40.2517C39.0815 40.0718 38.9489 39.8585 38.8701 39.6122C38.8435 39.5279 38.827 39.44 38.8098 39.3524C38.6119 39.4617 38.4125 39.5682 38.2115 39.6692C37.5131 40.0193 36.826 40.3013 36.1501 40.5143C35.4746 40.7276 34.8659 40.8341 34.3259 40.8341C33.7847 40.8341 33.3457 40.7062 33.0071 40.4504C32.6694 40.1948 32.5009 39.7589 32.5009 39.1434C32.5009 38.7071 32.591 38.2004 32.7707 37.6228C32.478 37.9923 32.1121 38.3665 31.6731 38.7451C31.2332 39.1242 30.7323 39.47 30.1694 39.7829C29.6053 40.0952 28.9748 40.3487 28.2768 40.5429C27.5781 40.737 26.8178 40.8341 25.9959 40.8341C25.624 40.8341 25.2666 40.8009 24.9228 40.7347C24.5791 40.6682 24.2779 40.5546 24.019 40.3935C23.7596 40.2328 23.5518 40.017 23.3938 39.7472C23.2362 39.4774 23.1574 39.1382 23.1574 38.7311C23.1574 38.7217 23.1799 38.5772 23.2249 38.2975C23.2699 38.018 23.4135 37.5774 23.6559 36.9759C23.898 36.3747 24.2727 35.5953 24.7789 34.6383C25.2863 33.6816 26.0016 32.5211 26.9251 31.1573C27.1615 30.797 27.4349 30.5389 27.7441 30.3827C28.0545 30.2263 28.389 30.1481 28.7493 30.1481C28.9073 30.1481 29.0705 30.1649 29.2394 30.1977C29.4091 30.2311 29.5663 30.2831 29.713 30.3542C29.859 30.4253 29.9776 30.5155 30.068 30.6243C30.1573 30.733 30.2031 30.8584 30.2031 31.0005C30.2031 31.0953 30.1859 31.1858 30.1521 31.2703C30.0954 31.4322 29.9744 31.6423 29.7894 31.9027C29.6033 32.1636 29.3861 32.462 29.1381 32.7983C28.8908 33.1346 28.6287 33.4969 28.3528 33.8857C28.0766 34.2737 27.8205 34.6763 27.5841 35.0934C27.3477 35.5105 27.1446 35.9341 26.9758 36.3652C26.8069 36.7963 26.7108 37.2157 26.6887 37.6228C26.6887 37.7933 26.7446 37.9494 26.8576 38.0916C26.9701 38.2338 27.1563 38.3046 27.4152 38.3046C28.147 38.3046 28.8454 38.1339 29.5104 37.7933C30.1746 37.4521 30.7881 37.0282 31.3518 36.5214C31.9151 36.0147 32.4246 35.4696 32.8809 34.887C33.3372 34.3043 33.7172 33.7718 34.0212 33.2885C34.2355 32.9667 34.424 32.6204 34.5873 32.2513C34.7505 31.8816 34.9282 31.541 35.1196 31.2281C35.3114 30.9152 35.5305 30.6548 35.7786 30.4464C36.0259 30.2383 36.3362 30.1338 36.7074 30.1338C37.1134 30.1338 37.4339 30.2428 37.6711 30.4607C37.9075 30.6788 38.0253 30.9392 38.0253 31.2421C38.0253 31.4125 37.9497 31.6475 37.7974 31.9458C37.645 32.2441 37.4536 32.5853 37.2228 32.969C36.9916 33.3527 36.7411 33.7624 36.4713 34.1978C36.2012 34.634 35.9499 35.0765 35.7199 35.5267C35.4879 35.9767 35.2973 36.4172 35.1449 36.8483C34.9925 37.2791 34.917 37.6797 34.917 38.0488C34.917 38.39 35.1646 38.5607 35.66 38.5607C36.0094 38.5607 36.4428 38.4753 36.9611 38.3046C37.4793 38.1339 38.0229 37.8949 38.5914 37.5869C38.7334 37.5101 38.8765 37.4298 39.0184 37.3456C39.1772 36.8806 39.3634 36.4506 39.5801 36.0598C39.9741 35.3203 40.3742 34.5866 40.7799 33.8572C41.1852 33.1278 41.5567 32.4597 41.8952 31.8533L47.0143 22.6878C47.2169 22.3184 47.4903 22.0578 47.8333 21.9062C48.1775 21.7548 48.5236 21.6789 48.873 21.6789C49.2216 21.6789 49.5397 21.7594 49.8271 21.9204C50.1146 22.0817 50.2586 22.3421 50.2586 22.7021C50.2586 22.8726 50.2103 23.0527 50.1146 23.242C50.0189 23.4316 49.8979 23.6351 49.7512 23.8529C49.4701 24.2986 49.1348 24.843 48.746 25.4871C48.3572 26.1315 47.9402 26.8326 47.4956 27.5903C47.0505 28.3483 46.5941 29.1368 46.1269 29.9562C45.6597 30.7759 45.2034 31.5738 44.7583 32.3506C44.314 33.1277 43.8967 33.8638 43.5079 34.5604C43.1195 35.2567 42.785 35.8608 42.5027 36.3721C42.3789 36.5899 42.2579 36.8437 42.1401 37.1326C42.0214 37.4213 41.9627 37.6796 41.9627 37.9072C41.9627 38.0488 41.9965 38.1624 42.0641 38.2478C42.1316 38.3331 42.2611 38.376 42.4525 38.376C42.6889 38.376 42.9844 38.3169 43.3394 38.1981C43.694 38.0799 44.0768 37.9232 44.4881 37.729C44.8998 37.5352 45.3276 37.3125 45.7719 37.0613C46.2174 36.8103 46.6593 36.55 47.0983 36.2799C47.5382 36.0095 47.9575 35.7397 48.3572 35.4696C48.7568 35.1999 49.1151 34.9512 49.4307 34.7237C49.5047 34.6691 49.5931 34.6306 49.6904 34.6018C49.8806 34.1983 50.0543 33.8032 50.2075 33.4167C50.2976 33.2459 50.4218 33.0047 50.5794 32.6918C50.7366 32.3789 50.9171 32.0711 51.1198 31.7679C51.3224 31.465 51.5512 31.2018 51.8037 30.9794C52.0574 30.757 52.3308 30.6454 52.6235 30.6454C53.0742 30.6454 53.4011 30.719 53.6037 30.8655C53.8064 31.0128 53.9077 31.2281 53.9077 31.5124C53.9077 31.5692 53.8964 31.6592 53.8739 31.7822C53.851 31.9056 53.8237 32.036 53.7899 32.1733C53.7561 32.3104 53.7191 32.4409 53.6797 32.5642C53.6399 32.6872 53.6037 32.7772 53.57 32.834C53.9861 32.5117 54.4368 32.1922 54.9213 31.875C55.4058 31.5575 55.9068 31.2703 56.425 31.0151C56.9437 30.759 57.4728 30.5512 58.014 30.3893C58.554 30.2289 59.0951 30.1481 59.6355 30.1481C60.007 30.1481 60.3761 30.186 60.742 30.262C61.1079 30.3376 61.4352 30.449 61.7218 30.5957C62.0093 30.743 62.2433 30.9275 62.423 31.1501C62.6032 31.3725 62.6932 31.6306 62.6932 31.9244C62.6932 32.3132 62.5557 32.7275 62.2795 33.168C62.0037 33.6085 61.6575 34.0513 61.2406 34.4961C60.8236 34.9418 60.3729 35.3749 59.8892 35.7965C59.4047 36.2182 58.9516 36.6016 58.529 36.9474C58.1065 37.2937 57.7514 37.5869 57.464 37.8284C57.1777 38.0705 57.0273 38.2338 57.0165 38.3192C57.0165 38.4328 57.0675 38.525 57.1689 38.5964C57.2702 38.6672 57.439 38.7029 57.6755 38.7029C57.8668 38.7029 58.1491 38.6269 58.5202 38.4753C58.8917 38.3237 59.4132 38.0611 60.083 37.6868C60.7529 37.3125 61.604 36.8103 62.6345 36.1802C63.3414 35.7486 64.1688 35.2338 65.1012 34.6483L69.5698 5.26278C68.8501 5.54485 68.1014 5.72185 67.6599 5.82548C65.8112 6.25886 63.2006 6.64485 59.9005 6.97203ZM34.9797 -6.09879e-07C15.661 -6.09879e-07 2.77993e-09 1.53378 2.77993e-09 3.42592C2.77993e-09 5.31805 15.661 6.85183 34.9797 6.85183C54.2983 6.85183 69.9594 5.31805 69.9594 3.42592C69.9594 1.53378 54.2983 -6.09879e-07 34.9797 -6.09879e-07ZM48.9466 4.42714C48.9466 4.87108 47.0855 5.23109 44.7893 5.23109C42.4935 5.23109 40.6323 4.87108 40.6323 4.42714C40.6323 3.98291 42.4935 3.62291 44.7893 3.62291C47.0855 3.62291 48.9466 3.98291 48.9466 4.42714Z" transform="translate(0 24.3492)" fill="#DA4648"/>
<path fill-rule="evenodd" clip-rule="evenodd" d="M0.0312625 28.4209C0.0106502 28.4442 1.44787e-06 28.4681 1.44787e-06 28.4923C1.44787e-06 28.7798 1.4985 29.0124 3.34639 29.0124C5.19468 29.0124 6.69278 28.7798 6.69278 28.4923L11.0636 15.9083L28.4461 2.87706C28.4518 2.87308 28.4573 2.86897 28.4626 2.86471C28.8305 2.56923 28.0839 1.6548 26.8451 0.870546C25.6063 0.0862968 24.2687 -0.179212 23.8529 0.119414C23.8498 0.121647 23.8468 0.123912 23.8438 0.126209L5.29761 13.9835L0.0312625 28.4209Z" transform="translate(41.4434)" fill="#DA4648"/>
</svg>
